<?xml version="1.0" standalone="no"?>
<!DOCTYPE svg PUBLIC "-//W3C//DTD SVG 20010904//EN"
 "http://www.w3.org/TR/2001/REC-SVG-20010904/DTD/svg10.dtd">
<svg version="1.0" xmlns="http://www.w3.org/2000/svg"
 width="1024.000000pt" height="1024.000000pt" viewBox="0 0 1024.000000 1024.000000"
 preserveAspectRatio="xMidYMid meet">

<g transform="translate(0.000000,1024.000000) scale(0.100000,-0.100000)"
fill="#000000" stroke="none">
<path d="M5245 9400 c-139 -37 -319 -125 -416 -205 -78 -64 -184 -172 -224
-229 -36 -50 -47 -58 -121 -86 -96 -36 -272 -135 -384 -216 -45 -32 -125 -102
-178 -156 -269 -273 -430 -625 -449 -983 -3 -55 -9 -101 -12 -103 -52 -20
-152 -93 -212 -154 -124 -125 -183 -264 -178 -418 3 -64 0 -81 -18 -106 -41
-58 -105 -198 -124 -273 -29 -108 -36 -296 -15 -385 40 -170 107 -290 230
-412 71 -70 98 -89 193 -135 l111 -54 3 -390 4 -390 28 -57 c43 -87 135 -151
231 -160 28 -3 32 -9 57 -83 15 -44 62 -195 105 -335 158 -524 196 -649 379
-1240 103 -333 208 -675 235 -760 26 -85 91 -292 143 -460 52 -168 107 -343
121 -390 42 -142 103 -219 216 -273 57 -28 75 -32 150 -32 76 0 92 3 152 33
73 36 135 97 173 172 20 39 64 174 140 430 48 163 207 680 290 945 48 154 100
321 115 370 15 50 49 158 75 240 25 83 85 274 132 425 46 151 101 327 120 390
20 63 66 216 102 339 l67 224 61 13 c107 22 161 65 210 169 l28 60 3 382 3
381 55 22 c333 136 528 456 494 814 -14 142 -59 266 -145 400 -31 49 -32 54
-26 125 18 206 -116 414 -352 553 l-47 28 0 81 c0 145 -64 391 -145 564 -83
175 -278 416 -438 544 -142 112 -316 212 -457 261 -36 13 -69 27 -74 31 -4 4
-7 70 -7 148 1 77 -3 158 -9 180 -16 61 -68 122 -129 154 -67 33 -158 36 -266
7z m160 -170 c-3 -5 -14 -10 -24 -10 -43 0 -260 -96 -313 -139 -43 -34 -84
-69 -105 -91 -14 -14 -31 -24 -38 -22 -8 1 -16 -2 -20 -8 -3 -6 0 -7 9 -4 9 3
16 1 16 -5 0 -6 -4 -11 -9 -11 -5 0 -17 -7 -25 -16 -11 -10 -16 -11 -16 -3 0
8 -7 6 -20 -6 -11 -10 -17 -22 -13 -28 3 -5 1 -7 -4 -4 -24 15 -146 -158 -212
-298 -38 -79 -86 -202 -94 -240 -3 -11 -5 5 -6 36 -3 154 123 417 276 575 144
150 402 282 551 283 33 1 51 -3 47 -9z m-286 -237 c-25 -27 -57 -62 -72 -79
-31 -35 -114 -151 -120 -168 -2 -6 -7 -9 -10 -6 -12 11 32 111 72 165 40 53
158 151 169 140 3 -2 -15 -26 -39 -52z m-274 -145 c-8 -25 -77 -149 -81 -145
-8 8 20 94 41 127 28 44 50 54 40 18z m310 -44 c-79 -71 -122 -104 -135 -104
-22 0 39 59 104 101 73 48 83 49 31 3z m-767 -305 c-14 -64 -23 -136 -22 -187
0 -66 -3 -82 -13 -77 -8 2 -11 0 -8 -5 3 -6 13 -10 21 -10 8 0 14 -5 14 -11 0
-6 -9 -8 -21 -4 -13 5 -19 3 -15 -3 5 -9 -15 -23 -36 -26 -14 -2 -20 -16 -7
-17 22 -1 50 -7 55 -12 9 -8 -61 -5 -71 3 -7 6 -15 2 -23 -10 -10 -16 -9 -18
3 -14 8 4 15 1 15 -5 0 -6 -6 -11 -14 -11 -8 0 -16 -7 -20 -15 -3 -8 -1 -15 4
-15 6 0 10 5 10 12 0 6 3 8 7 5 3 -4 11 1 18 10 11 14 12 14 18 -1 4 -9 3 -14
-2 -11 -5 3 -16 -4 -24 -15 -7 -11 -17 -17 -21 -13 -3 4 -12 -2 -20 -12 -8
-11 -20 -16 -29 -12 -9 3 -16 3 -15 -1 1 -4 -2 -18 -6 -31 -8 -24 -8 -24 -23
8 -9 17 -18 29 -21 27 -3 -3 1 -12 8 -21 7 -9 10 -19 6 -22 -4 -4 -12 -1 -17
7 -8 11 -12 12 -15 3 -3 -7 -12 -9 -20 -6 -10 4 -12 0 -7 -13 6 -17 5 -18 -13
-4 -15 11 -16 11 -6 0 18 -21 15 -33 -7 -27 -22 6 -35 -16 -26 -44 7 -20 -9
-27 -18 -9 -3 6 -4 5 -3 -2 2 -7 14 -13 27 -14 13 0 32 -5 43 -11 16 -9 16
-11 2 -16 -8 -3 -18 -2 -21 3 -4 6 -16 10 -28 10 -20 -1 -20 -2 -4 -11 25 -15
21 -32 -5 -18 -17 9 -24 9 -32 -3 -6 -8 -17 -13 -23 -11 -7 3 -13 -2 -13 -11
0 -9 6 -16 14 -16 9 0 12 -7 9 -19 -8 -33 -28 -31 -30 3 -4 49 -5 51 -32 52
-26 2 -26 2 -3 -9 14 -6 22 -19 22 -34 0 -14 -4 -21 -10 -18 -5 3 -10 1 -10
-4 0 -6 -5 -11 -11 -11 -6 0 -8 8 -4 19 3 11 2 22 -3 25 -10 6 -22 -25 -22
-57 0 -11 4 -15 12 -11 7 4 8 3 4 -4 -4 -6 -13 -9 -21 -6 -10 4 -12 0 -8 -15
3 -14 1 -21 -8 -21 -12 0 -12 -2 0 -9 9 -6 11 -16 6 -32 -8 -23 -8 -23 -16 -4
-7 18 -8 18 -9 -5 -1 -14 -3 -32 -5 -40 -6 -25 -12 -53 -19 -92 -6 -30 -11
-38 -29 -38 -12 0 -46 -7 -74 -14 l-53 -14 0 48 c0 69 27 213 57 305 87 269
260 512 478 675 88 65 196 132 203 126 1 -2 -7 -50 -20 -107z m1307 94 c40
-40 -16 -166 -95 -215 -82 -51 -185 -54 -211 -7 -24 45 34 145 111 194 71 45
165 58 195 28z m-777 -427 c110 -57 173 -176 124 -237 -35 -42 -135 -21 -208
43 -79 69 -120 178 -81 217 18 19 108 6 165 -23z m1134 14 c102 -38 180 -132
155 -187 -30 -67 -210 -59 -305 13 -71 55 -91 126 -47 169 20 21 34 25 84 25
36 0 82 -8 113 -20z m-633 -21 c53 -16 118 -71 126 -108 25 -117 -222 -127
-326 -14 -49 52 -49 101 -1 128 31 18 133 15 201 -6z m-1069 -33 c0 -3 -4 -8
-10 -11 -5 -3 -10 -1 -10 4 0 6 5 11 10 11 6 0 10 -2 10 -4z m125 -54 c-3 -3
-11 0 -18 7 -9 10 -8 11 6 5 10 -3 15 -9 12 -12z m-237 -56 c-7 -8 -15 -12
-17 -11 -5 6 10 25 20 25 5 0 4 -6 -3 -14z m45 -1 c-3 -9 -8 -14 -10 -11 -3 3
-2 9 2 15 9 16 15 13 8 -4z m-143 -25 c0 -6 -7 -13 -15 -16 -8 -4 -13 -10 -10
-15 3 -4 12 -6 20 -2 10 3 15 -1 15 -12 0 -11 -6 -15 -19 -10 -12 3 -21 0 -25
-10 -3 -8 -13 -15 -23 -14 -12 0 -14 2 -4 6 10 4 10 7 2 13 -8 5 -3 17 16 38
28 33 43 40 43 22z m31 -14 c5 3 9 0 9 -6 0 -15 -23 -7 -26 8 -1 7 0 8 3 2 2
-5 9 -8 14 -4z m49 10 c0 -2 -7 -6 -15 -10 -8 -3 -15 -1 -15 4 0 6 7 10 15 10
8 0 15 -2 15 -4z m336 -94 c12 -6 27 -25 34 -41 24 -60 -24 -134 -106 -161
-44 -15 -180 -8 -215 10 -76 39 -90 93 -36 134 96 73 246 100 323 58z m1226
-69 c21 -14 51 -46 67 -72 28 -45 61 -136 55 -156 -1 -5 -5 -23 -8 -38 -9 -37
-62 -62 -101 -47 -51 20 -94 62 -125 125 -38 76 -47 133 -30 176 23 54 73 58
142 12z m-1754 -10 c-15 -18 -21 -9 -13 18 6 16 9 18 16 8 4 -8 3 -19 -3 -26z
m42 -4 c0 -6 -4 -7 -10 -4 -5 3 -10 11 -10 16 0 6 5 7 10 4 6 -3 10 -11 10
-16z m795 -9 c3 -6 -1 -7 -9 -4 -18 7 -21 14 -7 14 6 0 13 -4 16 -10z m-6 -59
c-1 -17 -3 -20 -6 -8 -2 9 -8 17 -12 17 -4 0 -8 6 -8 14 0 8 6 12 14 9 7 -3
12 -17 12 -32z m-909 -1 c0 -5 -4 -10 -10 -10 -5 0 -10 5 -10 10 0 6 5 10 10
10 6 0 10 -4 10 -10z m44 -4 c-3 -8 -1 -17 5 -21 6 -3 11 -1 11 4 0 6 8 11 18
11 16 -1 16 -1 -1 -14 -23 -18 -62 -9 -64 15 -1 13 5 19 17 19 13 0 17 -5 14
-14z m846 0 c0 -3 -4 -8 -10 -11 -5 -3 -10 -1 -10 4 0 6 5 11 10 11 6 0 10 -2
10 -4z m407 -39 c95 -60 129 -170 101 -326 -25 -143 -124 -321 -199 -362 -81
-43 -239 249 -239 442 0 126 43 208 132 253 69 36 143 33 205 -7z m-433 -16
c3 -5 -1 -14 -8 -20 -12 -10 -13 -8 -9 8 6 23 9 25 17 12z m-31 -56 c-3 -9 -8
-14 -10 -11 -3 3 -2 9 2 15 9 16 15 13 8 -4z m-18 -55 c4 -6 -8 -39 -26 -73
-18 -34 -37 -72 -43 -84 -6 -13 -17 -23 -24 -23 -10 0 -10 4 2 15 8 9 13 22
10 29 -3 8 0 17 6 21 8 5 5 11 -7 21 -10 7 -13 14 -6 14 7 0 20 16 29 35 9 19
21 35 28 35 6 0 4 5 -4 10 -12 8 -11 10 7 10 12 0 25 -5 28 -10z m-676 -76
c10 -9 -35 -3 -49 6 -11 8 -7 9 15 4 17 -4 32 -8 34 -10z m225 -123 c-2 -3
-12 3 -22 13 -16 17 -16 18 5 5 12 -7 20 -15 17 -18z m-217 -27 c71 -45 88
-73 88 -153 0 -60 -3 -71 -33 -108 -18 -23 -49 -52 -68 -64 -35 -21 -39 -21
-107 -8 -42 8 -134 14 -217 14 -140 0 -149 -2 -268 -38 -118 -37 -125 -38
-143 -21 -23 20 -25 64 -5 102 27 53 158 166 241 208 146 75 260 105 383 100
71 -3 90 -8 129 -32z m2352 25 c62 -14 180 -70 259 -123 118 -78 192 -167 192
-230 0 -61 -16 -63 -160 -18 -108 34 -188 45 -291 38 -53 -4 -104 -8 -115 -10
-10 -2 -46 -9 -80 -16 -73 -14 -100 -4 -156 58 -44 48 -62 101 -53 150 14 77
61 122 154 147 56 16 190 18 250 4z m-1749 -154 c49 -15 108 -65 129 -108 23
-48 29 -144 10 -180 -17 -33 -70 -87 -103 -104 -60 -31 -173 -65 -261 -78
-101 -14 -124 -9 -173 46 -15 16 -47 39 -72 52 -54 29 -54 38 0 117 83 122
232 237 335 260 36 8 101 6 135 -5z m1054 -24 c37 -18 88 -56 129 -96 72 -70
166 -203 169 -239 0 -11 2 -33 3 -47 4 -58 -39 -79 -162 -79 -115 0 -184 19
-338 94 -117 57 -131 67 -143 98 -30 84 2 211 66 256 46 34 72 41 146 41 56 1
79 -4 130 -28z m-2019 -321 c4 -6 11 -7 18 -3 10 6 88 6 94 0 7 -7 -11 -46
-19 -41 -5 4 -5 11 1 18 8 9 7 13 -4 13 -8 0 -15 -7 -15 -14 0 -8 -6 -13 -12
-12 -28 3 -37 -2 -32 -18 4 -13 3 -14 -3 -5 -12 16 -54 12 -78 -8 -15 -12 -19
-12 -30 3 -15 21 -25 22 -25 2 0 -9 8 -18 18 -22 31 -11 62 -46 62 -70 0 -38
-26 -79 -59 -92 -51 -22 -111 27 -111 90 0 11 11 31 24 44 15 15 20 28 15 37
-8 12 -13 4 -10 -16 1 -5 -5 -6 -13 -3 -11 4 -13 1 -9 -10 5 -13 2 -15 -11
-10 -10 4 -15 3 -11 -3 3 -6 -3 -10 -14 -10 -23 0 -28 -19 -10 -37 17 -17 3
-74 -26 -106 -29 -31 -73 -36 -118 -12 -20 10 -27 11 -26 2 3 -27 -2 -35 -26
-41 -14 -4 -25 -14 -25 -23 0 -9 -8 -22 -17 -29 -17 -13 -17 -13 0 -14 9 0 17
-5 17 -11 0 -6 -6 -9 -14 -6 -20 8 -49 -16 -51 -41 -2 -20 -1 -20 21 3 24 26
44 33 44 15 0 -14 -41 -50 -57 -50 -8 0 -11 -4 -8 -10 3 -5 -1 -10 -9 -10 -9
0 -18 -11 -22 -24 -4 -17 -11 -23 -22 -20 -14 5 -14 4 1 -6 12 -8 15 -16 8
-28 -4 -9 -6 -24 -3 -32 2 -8 1 -12 -3 -8 -4 4 -14 1 -21 -7 -18 -17 -11 -144
9 -158 9 -6 8 -8 -3 -5 -21 6 -31 59 -32 178 -1 121 8 161 64 277 52 111 132
192 243 249 86 45 188 81 245 87 19 2 40 5 47 5 6 1 15 -3 18 -8z m179 -19 c2
-3 -9 -6 -25 -6 -16 0 -29 5 -29 11 0 11 47 7 54 -5z m2646 -3 c0 -13 -4 -18
-8 -13 -8 11 -29 12 -54 0 -10 -4 -25 -5 -33 -1 -12 4 -14 0 -9 -22 3 -17 2
-22 -3 -14 -8 10 -63 14 -63 4 0 -2 14 -15 30 -29 35 -29 39 -69 13 -114 -31
-52 -118 -52 -149 0 -10 16 -22 27 -28 25 -10 -4 -66 40 -66 51 0 2 5 7 12 11
7 5 8 3 3 -6 -6 -9 -2 -10 15 -5 14 4 25 3 30 -5 9 -15 30 -4 30 15 0 10 -10
13 -32 10 l-33 -4 30 25 c33 27 154 76 200 82 17 2 32 6 34 8 2 2 22 4 43 4
33 0 38 -3 38 -22z m-1274 -36 c45 -8 3 -27 -62 -27 -35 0 -64 -4 -64 -8 0 -5
-5 -5 -10 -2 -6 3 -17 -1 -26 -9 -8 -9 -25 -17 -37 -18 -12 0 -26 -2 -32 -3
-5 -2 -14 -3 -20 -4 -22 -3 19 -19 42 -16 13 1 22 0 19 -2 -2 -3 4 -13 15 -24
29 -29 24 -75 -10 -110 -37 -37 -72 -37 -110 -1 -29 26 -43 74 -29 97 4 6 -2
11 -12 11 -14 0 -18 -8 -18 -36 0 -19 -5 -47 -11 -62 -5 -14 -8 -29 -5 -32 2
-3 2 -4 -1 -2 -3 2 -22 -2 -42 -9 -25 -9 -45 -10 -62 -4 -26 11 -45 -5 -36
-29 3 -8 -2 -12 -13 -10 -10 2 -16 -3 -14 -10 1 -8 -2 -11 -7 -8 -5 3 -14 0
-20 -8 -9 -11 -9 -15 1 -19 8 -4 6 -8 -8 -12 -12 -4 -27 -18 -33 -31 -15 -34
-13 -43 4 -20 8 11 15 15 15 9 0 -6 -11 -21 -23 -34 -26 -26 -49 -83 -39 -95
4 -4 0 -5 -9 -1 -9 3 -16 0 -16 -6 0 -7 -1 -34 -1 -61 -3 -74 -13 -48 -13 31
1 200 118 397 286 484 67 35 171 73 225 82 31 6 145 5 176 -1z m-1556 -33 c0
-5 -6 -6 -13 -3 -8 3 -14 11 -14 19 0 11 4 12 14 4 7 -6 13 -15 13 -20z m2705
3 c-3 -3 -11 0 -18 7 -9 10 -8 11 6 5 10 -3 15 -9 12 -12z m372 -167 c30 -21
34 -51 11 -80 -22 -29 -44 -32 -76 -9 -28 19 -29 57 -2 84 24 24 38 25 67 5z
m-3483 -137 c-3 -5 -10 -6 -15 -3 -5 4 -9 0 -10 -7 0 -10 -2 -10 -6 -1 -6 17
20 44 29 30 4 -6 4 -15 2 -19z m163 -115 c-3 -10 -5 -4 -5 12 0 17 2 24 5 18
2 -7 2 -21 0 -30z m2510 -5 c-3 -8 -6 -5 -6 6 -1 11 2 17 5 13 3 -3 4 -12 1
-19z m-817 -201 c0 -2 -10 -12 -22 -23 l-23 -19 19 23 c18 21 26 27 26 19z
m-553 -29 c-3 -8 -6 -5 -6 6 -1 11 2 17 5 13 3 -3 4 -12 1 -19z m-13 -14 c3
-8 2 -12 -4 -9 -6 3 -10 10 -10 16 0 14 7 11 14 -7z m192 -162 c-21 -2 -42 0
-47 5 -4 4 13 6 39 3 l47 -5 -39 -3z m524 4 c0 -2 -7 -7 -16 -10 -8 -3 -12 -2
-9 4 6 10 25 14 25 6z m-317 -83 c-7 -2 -21 -2 -30 0 -10 3 -4 5 12 5 17 0 24
-2 18 -5z m44 1 c-3 -3 -12 -4 -19 -1 -8 3 -5 6 6 6 11 1 17 -2 13 -5z m361
-501 c56 -42 101 -77 100 -79 -4 -4 -1084 -15 -1400 -14 l-278 0 0 -90 0 -90
950 0 950 0 0 -50 c0 -54 -22 -108 -61 -149 -28 -30 -173 -137 -213 -158 -30
-16 -30 -16 -8 -24 31 -12 18 -29 -21 -28 -18 0 -26 3 -19 6 6 2 12 9 12 15 0
6 -11 3 -25 -6 -22 -14 -106 -16 -844 -16 -561 0 -827 3 -843 11 -13 6 -32 22
-43 37 -19 26 -20 45 -23 370 l-3 342 833 0 833 0 103 -77z m357 -593 c-94
-64 -101 -67 -178 -73 -76 -7 -127 4 -127 26 0 5 7 4 15 -3 13 -10 18 -11 28
-1 9 10 8 11 -5 6 -30 -12 -19 9 20 37 35 26 43 27 157 28 l120 0 -30 -20z
m-1755 -299 c3 -3 21 -18 41 -33 20 -15 40 -39 43 -53 l6 -25 123 0 122 0 88
-81 c79 -73 90 -80 105 -67 9 8 51 44 93 81 l76 67 85 0 c47 0 99 -3 114 -6
16 -3 67 -39 114 -80 83 -72 114 -86 138 -62 9 9 12 8 12 -4 0 -9 5 -20 12
-24 7 -5 8 -3 3 6 -6 10 1 12 35 7 58 -8 66 -25 30 -62 -17 -17 -30 -36 -30
-41 0 -6 29 -34 65 -63 36 -29 73 -63 83 -75 9 -13 22 -21 29 -19 6 2 18 -10
26 -26 14 -28 14 -31 -1 -31 -15 -1 -16 -2 -1 -13 9 -7 15 -20 13 -29 -1 -11
3 -15 14 -11 17 5 -62 -75 -166 -170 -28 -26 -52 -51 -52 -56 0 -4 27 -29 60
-55 l61 -46 -28 -26 c-15 -15 -7 -10 19 10 27 21 51 35 55 33 5 -3 7 -41 7
-85 l-2 -79 -48 -45 c-27 -25 -71 -66 -97 -90 l-48 -44 33 -24 c18 -14 42 -32
54 -40 12 -8 38 -28 58 -44 l36 -28 41 37 c22 20 43 34 46 32 3 -3 -18 -35
-45 -71 -47 -61 -50 -67 -42 -103 11 -46 5 -57 -93 -166 l-71 -79 35 -26 c19
-15 54 -45 79 -68 25 -23 51 -39 58 -37 24 9 11 -21 -33 -72 -24 -29 -41 -55
-38 -59 3 -3 1 -6 -5 -6 -10 0 -9 -71 3 -89 5 -9 -129 -148 -264 -274 -40 -37
-71 -71 -69 -75 2 -4 31 -33 65 -66 46 -43 68 -57 83 -53 24 6 24 11 5 -66 -8
-34 -31 -136 -51 -227 -20 -91 -40 -183 -45 -205 -22 -101 -36 -190 -32 -205
2 -8 -9 0 -25 18 -21 24 -41 73 -77 190 -26 86 -83 265 -126 397 -42 132 -105
330 -139 440 -34 110 -113 362 -175 560 -62 198 -143 457 -180 575 -36 118
-81 265 -100 325 -33 107 -187 624 -219 737 -22 77 -21 87 7 80 12 -3 24 -8
27 -11z m1466 -137 c-19 -18 -97 -16 -104 4 -3 9 13 12 58 12 56 0 60 -1 46
-16z"/>
<path d="M4120 8119 c0 -5 5 -7 10 -4 6 3 10 8 10 11 0 2 -4 4 -10 4 -5 0 -10
-5 -10 -11z"/>
<path d="M4181 8076 c-8 -13 -11 -30 -8 -38 3 -8 6 -5 6 8 1 11 6 25 13 32 6
6 9 14 7 17 -3 3 -11 -6 -18 -19z"/>
<path d="M4215 8089 c-4 -6 -5 -12 -2 -15 2 -3 7 2 10 11 7 17 1 20 -8 4z"/>
<path d="M3980 7964 c0 -17 17 -19 23 -1 2 6 8 9 12 5 4 -4 2 -14 -5 -23 -19
-23 -6 -28 15 -5 21 23 16 32 -20 35 -16 2 -25 -2 -25 -11z"/>
<path d="M3970 7906 c0 -2 7 -7 16 -10 8 -3 12 -2 9 4 -6 10 -25 14 -25 6z"/>
<path d="M3937 7881 c-4 -17 -3 -21 5 -13 5 5 8 16 6 23 -3 8 -7 3 -11 -10z"/>
<path d="M3985 7870 c3 -5 8 -10 11 -10 2 0 4 5 4 10 0 6 -5 10 -11 10 -5 0
-7 -4 -4 -10z"/>
<path d="M3728 6842 c2 -7 11 -11 19 -8 8 3 17 6 19 6 2 0 4 3 4 8 0 4 -11 7
-24 7 -15 0 -22 -5 -18 -13z"/>
<path d="M3680 6846 c0 -2 7 -7 16 -10 8 -3 12 -2 9 4 -6 10 -25 14 -25 6z"/>
<path d="M3596 6795 c4 -8 11 -15 16 -15 6 0 5 6 -2 15 -7 8 -14 15 -16 15 -2
0 -1 -7 2 -15z"/>
<path d="M5295 4820 c-18 -8 -17 -9 8 -9 16 -1 26 3 22 9 -3 6 -7 10 -8 9 -1
0 -11 -4 -22 -9z"/>
<path d="M4735 4199 l-89 -90 44 -37 c25 -20 68 -58 95 -84 l51 -47 92 85 c51
47 92 89 92 94 0 8 -173 162 -188 167 -4 2 -47 -38 -97 -88z"/>
<path d="M4215 4244 l-39 -35 39 -112 c21 -62 41 -115 44 -119 3 -4 43 28 89
70 l83 77 -85 78 c-46 42 -86 77 -88 77 -2 -1 -21 -17 -43 -36z"/>
<path d="M4461 3942 l-80 -89 84 -74 c46 -40 88 -75 92 -76 4 -1 45 32 91 75
l83 77 -95 87 -94 88 -81 -88z"/>
<path d="M5052 3937 l-82 -83 65 -54 c87 -72 98 -77 127 -54 70 56 128 108
128 116 0 6 -149 158 -155 158 0 0 -38 -37 -83 -83z"/>
<path d="M4802 3697 l-73 -73 71 -63 70 -63 58 50 c31 27 66 59 76 71 20 22
20 22 -18 52 -20 17 -53 46 -73 65 -20 19 -36 34 -37 34 -1 0 -34 -33 -74 -73z"/>
<path d="M4544 3480 l-71 -69 68 -67 67 -66 75 63 c41 35 74 67 74 70 -1 3
-34 35 -72 71 l-71 66 -70 -68z"/>
<path d="M5062 3468 c-39 -35 -69 -66 -69 -70 3 -9 117 -108 126 -108 4 0 38
29 76 64 l70 64 -55 56 c-30 31 -60 56 -66 56 -7 0 -44 -28 -82 -62z"/>
<path d="M4795 3270 l-70 -70 68 -66 68 -65 70 57 c38 31 71 60 73 63 3 5
-130 151 -138 151 -1 0 -33 -32 -71 -70z"/>
<path d="M4569 3081 l-36 -38 40 -96 40 -95 71 60 c39 34 73 62 75 64 5 5
-139 144 -147 143 -4 0 -23 -18 -43 -38z"/>
<path d="M5058 3033 l-86 -78 72 -67 c39 -37 76 -67 82 -68 6 0 44 30 85 66
41 37 75 67 76 68 1 1 -31 37 -71 80 l-73 77 -85 -78z"/>
<path d="M4777 2792 l-87 -87 35 -19 c19 -11 57 -42 84 -71 l49 -51 82 79 82
79 -78 79 -79 79 -88 -88z"/>
<path d="M5061 2545 l-76 -75 73 -71 73 -70 37 30 c20 16 71 65 112 108 41 42
61 65 44 49 l-32 -28 -70 66 c-38 36 -73 66 -77 66 -4 0 -42 -34 -84 -75z"/>
<path d="M5356 2561 c-4 -5 -2 -12 3 -15 5 -4 12 -2 15 3 4 5 2 12 -3 15 -5 4
-12 2 -15 -3z"/>
<path d="M4822 2315 l-57 -54 47 -48 c26 -26 53 -61 61 -76 l15 -29 71 68 72
67 -63 64 c-34 35 -69 63 -76 63 -8 0 -39 -25 -70 -55z"/>
</g>
</svg>
