<?xml version="1.0" standalone="no"?>
<!DOCTYPE svg PUBLIC "-//W3C//DTD SVG 20010904//EN"
 "http://www.w3.org/TR/2001/REC-SVG-20010904/DTD/svg10.dtd">
<svg version="1.0" xmlns="http://www.w3.org/2000/svg"
 width="1024.000000pt" height="1024.000000pt" viewBox="0 0 1024.000000 1024.000000"
 preserveAspectRatio="xMidYMid meet">

<g transform="translate(0.000000,1024.000000) scale(0.100000,-0.100000)"
fill="#000000" stroke="none">
<path d="M5180 9452 c-89 -25 -138 -52 -203 -112 -72 -66 -109 -124 -151 -243
-42 -115 -68 -158 -129 -214 -59 -54 -93 -71 -272 -133 -170 -59 -224 -84
-315 -147 -211 -148 -358 -342 -426 -568 -24 -81 -27 -106 -28 -248 -1 -136
-3 -156 -16 -151 -59 25 -144 45 -213 50 -287 21 -540 -169 -603 -453 -20 -89
-15 -246 10 -328 9 -28 12 -51 6 -53 -36 -12 -134 -89 -181 -140 -109 -120
-157 -269 -146 -447 4 -49 9 -100 13 -112 5 -17 0 -25 -26 -38 -48 -25 -151
-132 -192 -200 -59 -97 -83 -191 -83 -320 0 -90 5 -124 25 -185 30 -93 117
-225 199 -303 l61 -58 0 -143 c0 -173 9 -227 56 -323 45 -95 136 -191 247
-263 l84 -55 6 -80 c6 -100 33 -171 96 -256 61 -83 155 -153 304 -228 l119
-59 42 -94 c24 -51 98 -214 166 -363 67 -148 164 -360 215 -470 103 -222 126
-274 313 -690 207 -462 348 -762 382 -815 41 -64 148 -164 208 -194 210 -107
470 -55 619 122 56 67 79 110 193 362 150 332 260 572 528 1155 198 430 348
763 387 855 62 147 68 155 152 199 153 80 259 186 309 311 21 52 27 87 32 176
l5 111 54 43 c143 112 213 260 213 455 l0 90 50 34 c68 46 184 163 232 234 56
83 124 229 150 322 18 68 22 108 22 265 l1 185 -41 116 c-22 64 -60 151 -85
194 -51 90 -151 202 -221 250 l-49 33 -5 88 c-13 232 -107 437 -278 603 -42
40 -76 75 -76 77 0 2 35 66 79 141 223 391 498 895 517 948 46 129 39 258 -21
382 -81 165 -277 265 -464 236 -132 -21 -244 -91 -315 -197 -31 -47 -257 -458
-323 -588 -13 -27 -27 -48 -31 -48 -4 0 -20 34 -35 76 -38 101 -130 236 -218
318 -100 95 -214 166 -381 239 -206 90 -296 158 -344 262 -47 99 -17 185 65
185 71 0 107 73 67 135 -46 70 -226 103 -356 67z m7 -163 c-41 -31 -78 -101
-84 -161 -2 -30 5 -126 17 -218 41 -310 38 -382 -20 -497 -64 -127 -178 -238
-317 -308 -39 -20 -138 -58 -220 -84 -411 -135 -548 -220 -680 -423 -24 -38
-47 -68 -50 -68 -3 0 -4 49 -1 109 4 102 7 116 41 183 91 185 246 308 492 393
251 87 413 204 503 365 46 83 70 165 87 301 30 238 76 335 189 399 59 34 84
39 43 9z m26 -444 c73 -196 84 -327 37 -466 -30 -89 -78 -163 -152 -237 -52
-52 -168 -142 -182 -142 -2 0 -42 -17 -88 -39 -77 -35 -171 -73 -183 -72 -11
0 -200 -70 -205 -77 -3 -4 -16 -8 -30 -10 -14 -1 -29 -8 -35 -16 -5 -7 -15
-11 -22 -9 -6 2 -20 -4 -30 -14 -10 -10 -22 -18 -28 -18 -18 -1 -65 -28 -65
-37 0 -5 -4 -7 -9 -3 -6 3 -26 -9 -45 -26 -20 -17 -36 -27 -36 -23 0 4 -7 -1
-15 -12 -8 -10 -15 -15 -15 -11 0 5 -7 1 -16 -7 -8 -9 -12 -21 -8 -27 4 -8 3
-9 -4 -5 -7 4 -22 -4 -36 -18 -13 -14 -28 -26 -35 -26 -6 0 -11 -4 -11 -8 0
-5 -7 -17 -15 -28 -10 -12 -9 -5 4 21 49 102 195 228 338 291 32 15 135 53
228 86 94 33 198 73 232 88 222 101 386 278 423 457 20 93 8 240 -29 360 -30
100 -41 177 -22 158 6 -6 30 -64 54 -130z m2010 -24 c56 -25 122 -94 153 -160
38 -78 31 -169 -17 -266 -45 -89 -250 -461 -319 -580 -29 -49 -62 -108 -74
-130 -13 -22 -36 -65 -54 -95 -17 -30 -48 -87 -69 -126 -21 -40 -42 -72 -48
-73 -5 0 -26 4 -46 9 -34 9 -37 13 -42 58 -3 26 -9 55 -12 64 -6 15 -3 16 24
5 37 -14 64 -2 69 30 2 15 -12 31 -55 62 -32 22 -64 41 -70 41 -7 0 -27 28
-44 63 -38 74 -80 138 -126 190 -18 20 -33 41 -33 46 0 10 80 161 230 436 48
88 107 195 130 239 65 120 126 179 211 205 46 14 142 5 192 -18z m-2402 -53
c-89 -142 -174 -200 -411 -282 -57 -20 -139 -54 -183 -76 -43 -22 -83 -37 -88
-34 -5 3 -8 2 -7 -3 1 -4 -10 -21 -25 -37 -15 -16 -27 -26 -27 -22 0 4 -7 0
-16 -8 -8 -9 -22 -16 -30 -16 -8 0 -13 -4 -10 -9 10 -15 -23 -36 -36 -23 -9 9
1 26 38 69 104 120 232 194 487 282 117 40 200 86 261 143 60 55 76 61 47 16z
m947 -169 c95 -47 138 -76 197 -131 109 -102 213 -256 202 -300 -3 -10 -1 -18
3 -18 5 0 14 -26 20 -57 41 -196 -84 -403 -316 -525 -161 -84 -269 -105 -657
-128 -195 -12 -304 -28 -442 -65 -132 -36 -313 -113 -357 -152 -15 -13 -24
-12 -85 13 -52 21 -90 28 -165 32 l-97 5 48 71 c27 39 78 99 115 133 174 163
334 230 711 298 211 38 291 59 392 107 215 100 343 291 343 508 0 81 -15 150
-55 253 -12 29 14 21 143 -44z m-1721 -334 c-23 -22 -33 -18 -12 5 10 11 20
18 23 16 2 -3 -3 -12 -11 -21z m-60 -27 c-2 -7 -9 -12 -15 -11 -5 1 -13 -9
-16 -22 -4 -14 -11 -25 -17 -25 -6 0 -5 8 2 23 17 32 30 47 41 47 5 0 8 -6 5
-12z m2346 -417 c50 -75 69 -155 65 -266 -3 -90 -7 -107 -38 -170 -82 -167
-309 -327 -550 -389 -36 -9 -130 -25 -210 -36 -352 -50 -482 -84 -615 -162
-67 -40 -198 -161 -241 -222 l-20 -30 0 155 1 154 -39 80 c-28 58 -57 98 -104
144 -35 35 -60 66 -55 70 84 57 169 91 316 126 115 28 227 41 484 55 299 17
430 47 606 138 92 47 124 71 205 150 54 52 103 94 110 93 6 -1 12 3 12 9 0 6
-4 8 -10 5 -12 -7 -12 -3 -4 19 3 9 13 16 21 16 8 0 12 4 8 9 -6 11 16 91 26
91 4 0 18 -18 32 -39z m-2838 -266 c70 -19 116 -45 170 -99 l40 -39 -40 28
c-22 16 -43 34 -47 39 -5 7 -8 7 -8 1 0 -5 -4 -5 -8 2 -10 16 -48 21 -44 5 1
-8 -2 -11 -8 -7 -6 4 -9 13 -6 20 3 9 -2 12 -17 10 -82 -13 -156 -15 -162 -6
-10 18 -68 12 -95 -9 -15 -12 -41 -20 -63 -20 -34 0 -40 -4 -50 -30 -6 -17
-19 -32 -28 -35 -38 -12 -69 -46 -69 -75 0 -16 5 -32 10 -35 17 -11 11 -42
-15 -73 -52 -61 -53 -188 -4 -301 15 -34 22 -41 32 -32 10 8 14 7 14 -4 0 -18
-8 -19 -42 -3 -16 7 -37 34 -55 72 -56 113 -49 239 19 373 45 89 93 138 175
178 107 54 200 66 301 40z m6 -108 c-10 -9 -11 -8 -5 6 3 10 9 15 12 12 3 -3
0 -11 -7 -18z m-113 -29 c24 0 27 -5 12 -28 -8 -12 -15 -12 -59 4 -57 20 -72
16 -120 -39 -50 -57 -35 -109 34 -117 l30 -3 -24 -13 c-16 -10 -26 -11 -33 -4
-6 6 -16 8 -23 6 -20 -8 -45 36 -45 79 0 31 6 44 32 65 67 58 80 63 128 56 25
-4 55 -7 68 -6z m216 -14 c3 -8 2 -12 -4 -9 -6 3 -10 10 -10 16 0 14 7 11 14
-7z m-84 -7 c0 -2 -15 -13 -32 -26 l-33 -22 28 25 c26 24 37 31 37 23z m-67
-134 c-7 -2 -19 -2 -25 0 -7 3 -2 5 12 5 14 0 19 -2 13 -5z m3318 -94 c137
-74 251 -215 309 -384 32 -93 34 -109 35 -230 0 -111 -3 -140 -23 -197 -24
-68 -78 -161 -139 -235 -37 -44 -147 -125 -228 -166 -121 -61 -333 -110 -565
-132 -340 -32 -544 -65 -663 -108 l-63 -23 20 56 c16 49 17 65 8 149 -13 109
-18 99 88 155 141 74 277 110 593 156 405 60 630 174 779 394 40 58 60 126 56
188 l-3 53 -41 -65 c-124 -198 -289 -325 -512 -393 l-82 -25 21 26 c55 70 60
124 28 287 -32 156 -27 172 65 234 91 62 169 147 209 228 17 35 35 63 40 63 5
0 36 -14 68 -31z m-3622 -5 c10 -9 -55 -3 -69 6 -10 6 -2 7 25 3 22 -3 42 -7
44 -9z m191 -24 c8 -5 11 -10 5 -10 -5 0 -17 5 -25 10 -8 5 -10 10 -5 10 6 0
17 -5 25 -10z m955 -17 c58 -17 148 -80 138 -95 -3 -6 -1 -8 5 -5 10 7 62 -46
62 -64 0 -17 -15 -9 -58 31 -24 22 -50 40 -57 40 -7 0 -15 6 -18 13 -3 9 -8 9
-16 1 -9 -8 -9 -17 0 -38 16 -34 -1 -57 -26 -36 -14 12 -18 11 -26 -1 -7 -12
-10 -12 -18 0 -6 9 -11 10 -15 2 -4 -6 -2 -11 5 -11 8 0 7 -5 -2 -17 -10 -11
-10 -14 -1 -9 6 4 12 2 12 -3 0 -6 -7 -11 -15 -11 -9 0 -15 9 -15 23 0 27 -35
87 -51 87 -6 0 -24 -8 -40 -17 -27 -16 -31 -16 -63 0 -34 16 -36 16 -53 -7
-11 -13 -29 -26 -41 -30 -32 -11 -44 -38 -31 -75 9 -24 7 -35 -5 -53 -9 -12
-16 -36 -16 -53 0 -16 -4 -34 -8 -40 -9 -13 -42 -18 -42 -6 0 5 -14 14 -31 20
l-31 11 3 -73 c3 -59 1 -72 -11 -72 -25 0 -42 72 -37 153 10 134 83 250 196
311 93 49 198 57 306 24z m-1070 -23 c-3 -5 -14 -10 -23 -9 -14 0 -13 2 3 9
27 11 27 11 20 0z m325 -43 c0 -2 -10 -12 -22 -23 l-23 -19 19 23 c18 21 26
27 26 19z m-330 -118 c11 -7 7 -9 -18 -5 -19 2 -36 7 -40 10 -10 10 42 6 58
-5z m-139 -22 c-10 -9 -11 -8 -5 6 3 10 9 15 12 12 3 -3 0 -11 -7 -18z m266
17 c-3 -3 -12 -4 -19 -1 -8 3 -5 6 6 6 11 1 17 -2 13 -5z m1174 -21 c7 -18 6
-30 -1 -37 -8 -8 -10 -7 -5 5 3 9 -1 22 -9 29 -9 7 -13 16 -10 21 9 14 14 11
25 -18z m-384 11 c-4 -4 -16 -12 -28 -18 -34 -17 -46 -42 -32 -65 18 -28 -7
-47 -38 -30 -20 10 -20 12 -6 21 11 6 17 22 17 43 0 22 6 38 18 44 19 11 79
15 69 5z m190 -26 c-3 -8 -6 -5 -6 6 -1 11 2 17 5 13 3 -3 4 -12 1 -19z m1788
-5 c39 -42 55 -112 55 -234 0 -120 -4 -139 -30 -139 -34 0 -43 26 -41 125 2
71 -3 115 -19 171 -17 59 -19 78 -9 90 15 18 14 19 44 -13z m-1805 -43 c-8 -6
-23 -10 -33 -10 -14 0 -17 -5 -12 -20 4 -11 2 -20 -4 -20 -6 0 -11 11 -11 25
0 20 5 25 24 25 14 0 28 5 31 11 4 6 10 8 13 4 4 -3 0 -10 -8 -15z m1367 -6
c-29 -15 -78 -28 -130 -35 -45 -5 -109 -14 -142 -20 -33 -5 -66 -10 -72 -11
-7 -1 -13 -6 -13 -11 0 -6 -3 -7 -7 -4 -3 4 -12 2 -20 -4 -7 -6 -13 -8 -13 -5
0 4 -10 -2 -22 -14 -24 -22 -38 -26 -38 -9 0 5 -5 7 -11 4 -6 -4 -8 -13 -5
-21 3 -8 1 -14 -4 -14 -6 0 -10 6 -10 13 0 8 -3 7 -9 -3 -6 -8 -8 -17 -6 -20
2 -3 -5 -6 -15 -6 -10 0 -16 5 -14 11 3 5 -1 2 -9 -7 -15 -19 -32 -25 -22 -8
3 6 1 10 -4 10 -15 0 -14 -23 2 -40 6 -8 -1 -4 -16 10 -23 20 -27 21 -21 6 5
-13 4 -17 -4 -12 -6 3 -13 2 -17 -4 -4 -6 -11 -8 -16 -5 -5 4 -9 2 -9 -4 0 -5
-14 -12 -30 -16 -19 -4 -32 -14 -36 -29 -3 -13 -13 -22 -24 -22 -14 0 -16 3
-8 13 8 10 7 13 -3 13 -7 0 4 18 26 40 81 83 271 158 465 185 69 9 161 23 205
30 44 7 85 13 90 13 6 1 -11 -10 -38 -24z m-1807 -99 c0 -8 -4 -15 -10 -15 -5
0 -10 7 -10 15 0 8 5 15 10 15 6 0 10 -7 10 -15z m150 -10 c8 -10 8 -13 -2
-10 -36 8 -58 18 -58 25 0 11 48 -1 60 -15z m180 17 c0 -5 -19 -8 -42 -8 -30
1 -42 -3 -40 -11 1 -7 -2 -13 -8 -13 -11 0 -14 23 -3 33 9 10 93 9 93 -1z
m-1048 -13 c54 -12 122 -41 132 -58 4 -5 -18 -3 -46 5 -101 26 -193 16 -225
-25 -11 -14 -12 -14 -13 1 0 15 -4 16 -25 6 -14 -6 -24 -17 -21 -24 3 -8 1
-16 -5 -19 -5 -4 -7 -11 -3 -16 3 -5 2 -9 -3 -8 -22 4 -30 -3 -27 -26 2 -21
-1 -25 -15 -20 -11 3 -24 -2 -32 -11 -17 -20 -19 -73 -3 -67 6 2 11 -3 11 -11
0 -8 -4 -13 -9 -10 -4 3 -8 1 -8 -4 0 -13 -39 -22 -46 -11 -3 5 0 9 6 9 6 0 8
5 4 11 -4 8 -10 6 -17 -6 -7 -13 -5 -20 7 -27 9 -5 14 -14 10 -19 -4 -6 -14
-3 -27 8 -11 10 -17 13 -14 6 4 -6 0 -13 -10 -16 -14 -4 -13 -5 5 -6 29 -1 28
-23 -1 -55 -18 -19 -27 -22 -35 -14 -9 9 -9 4 -2 -20 5 -18 5 -30 1 -28 -19
12 -29 -11 -21 -52 6 -37 5 -42 -11 -42 -38 0 -58 130 -34 234 49 221 261 361
477 315z m2804 -15 c26 -25 26 -27 19 -122 -6 -85 -4 -104 15 -154 13 -36 35
-69 60 -92 l39 -35 -32 -5 c-227 -37 -387 -81 -514 -141 l-93 -44 0 62 c1 157
56 293 165 403 69 70 138 114 220 140 63 20 93 17 121 -12z m-2056 -15 c0 -5
-4 -9 -8 -9 -5 0 -9 7 -9 15 0 8 4 12 9 9 4 -3 8 -9 8 -15z m37 -11 c-3 -8 -6
-5 -6 6 -1 11 2 17 5 13 3 -3 4 -12 1 -19z m377 13 c3 -5 -2 -15 -12 -22 -15
-12 -16 -12 -5 2 7 9 10 19 6 22 -3 4 -4 7 0 7 3 0 8 -4 11 -9z m203 -23 c-3
-7 -5 -2 -5 12 0 14 2 19 5 13 2 -7 2 -19 0 -25z m-437 0 c0 -6 -6 -5 -15 2
-8 7 -15 14 -15 16 0 2 7 1 15 -2 8 -4 15 -11 15 -16z m35 2 c3 -5 -1 -10 -10
-10 -9 0 -13 5 -10 10 3 6 8 10 10 10 2 0 7 -4 10 -10z m-195 -45 c0 -5 -5 -3
-10 5 -5 8 -10 20 -10 25 0 6 5 3 10 -5 5 -8 10 -19 10 -25z m-653 19 c-3 -3
-12 -4 -19 -1 -8 3 -5 6 6 6 11 1 17 -2 13 -5z m978 -24 c-3 -5 -12 -10 -18
-10 -7 0 -6 4 3 10 19 12 23 12 15 0z m825 -5 c0 -2 -10 -9 -22 -15 -22 -11
-22 -10 -4 4 21 17 26 19 26 11z m-932 -32 c-16 -2 -40 -2 -55 0 -16 2 -3 4
27 4 30 0 43 -2 28 -4z m-376 -56 c58 -28 138 -100 101 -91 -20 5 -20 3 -10
-36 9 -33 9 -43 -2 -49 -7 -5 -11 -13 -7 -19 3 -6 1 -14 -5 -18 -7 -4 -9 -3
-6 2 3 6 2 16 -2 23 -15 24 -19 -24 -5 -55 9 -19 12 -21 8 -6 -3 12 -1 22 5
22 6 0 11 -6 11 -12 0 -9 4 -8 10 2 8 13 10 12 11 -5 5 -64 -10 -111 -26 -84
-5 8 -4 10 3 5 8 -5 12 2 12 20 0 27 -1 27 -14 8 -10 -12 -18 -16 -24 -9 -14
14 -18 91 -8 148 11 61 -6 81 -83 104 -31 8 -73 24 -93 34 -50 25 -60 24 -96
-11 -18 -16 -39 -30 -49 -30 -28 0 -53 -31 -53 -66 0 -21 -9 -43 -25 -60 -14
-15 -25 -30 -26 -33 -4 -30 -9 -46 -18 -49 -5 -2 -7 -10 -4 -18 5 -12 -7 -19
-29 -15 -12 2 -10 -13 3 -26 8 -8 8 -16 -1 -30 -10 -16 -11 -16 -6 0 3 9 1 17
-4 17 -6 0 -10 -6 -11 -12 0 -10 -2 -10 -6 -1 -3 10 -10 9 -27 -2 -12 -8 -26
-12 -31 -8 -4 5 -5 3 -2 -4 4 -6 3 -22 -2 -35 -7 -18 -5 -34 7 -57 12 -26 13
-34 3 -41 -10 -6 -10 -12 -2 -29 8 -14 8 -21 1 -21 -5 0 -10 -5 -10 -11 0 -5
5 -7 12 -3 7 4 8 3 4 -5 -4 -6 -4 -18 1 -24 4 -7 -1 -2 -13 10 -27 31 -54 108
-61 175 -6 64 16 161 52 222 55 93 171 177 284 206 65 17 174 6 233 -23z
m1625 -6 c-3 -14 -18 -60 -33 -101 -27 -73 -28 -80 -30 -310 -1 -200 -4 -236
-17 -244 -10 -7 -20 -6 -31 3 -14 11 -16 43 -16 211 0 252 26 398 81 456 27
29 53 20 46 -15z m-2487 -32 c0 -5 4 -8 8 -5 5 3 9 -1 9 -9 0 -16 -7 -18 -31
-9 -20 8 -21 34 -1 34 8 0 15 -5 15 -11z m122 -3 c5 3 -1 -10 -14 -30 -13 -19
-24 -31 -26 -26 -2 6 3 17 12 25 8 9 14 21 12 28 -1 7 -1 9 1 4 3 -4 9 -4 15
-1z m604 -56 c6 -6 30 -14 55 -18 l44 -8 0 -59 c1 -68 -3 -85 -17 -85 -6 0 -8
17 -4 43 6 38 4 46 -21 69 -19 18 -41 27 -72 30 -38 3 -46 -1 -64 -24 -11 -15
-20 -41 -20 -58 0 -30 -11 -37 -35 -21 -10 6 -10 10 2 20 9 7 18 28 22 47 9
49 83 91 110 64z m1079 -15 c70 -19 140 -61 189 -115 39 -43 66 -87 46 -75 -9
5 -10 1 -5 -16 5 -17 -3 -11 -25 19 -33 44 -98 94 -147 113 -36 14 -144 22
-123 9 8 -5 18 -6 22 -4 4 3 8 0 8 -7 0 -6 8 -9 19 -6 14 3 17 0 14 -14 -3
-11 5 -31 18 -47 20 -23 24 -36 20 -81 -2 -34 -6 -49 -11 -40 -5 7 -6 17 -3
23 3 5 1 6 -5 2 -14 -8 -35 30 -28 50 3 8 2 13 -2 10 -4 -2 -14 9 -21 25 -7
16 -17 27 -21 24 -5 -3 -13 3 -19 12 -6 10 -11 13 -11 6 0 -6 5 -15 10 -18 17
-10 11 -25 -10 -25 -14 0 -20 7 -20 21 0 19 -4 21 -30 16 -29 -6 -37 2 -31 36
2 14 -25 18 -52 8 -19 -8 -25 -15 -21 -28 5 -14 4 -15 -4 -4 -9 12 -16 10 -45
-12 -32 -24 -34 -29 -27 -61 5 -25 4 -35 -4 -33 -6 1 -10 -4 -8 -11 4 -19 -24
-43 -42 -36 -10 4 -16 1 -16 -7 0 -7 3 -10 6 -6 4 3 13 -1 21 -9 9 -8 12 -18
8 -22 -4 -4 -10 -1 -12 6 -3 6 -9 10 -14 6 -5 -3 0 -13 12 -23 17 -14 19 -20
9 -26 -8 -5 -11 -4 -6 3 3 6 2 13 -4 17 -10 6 -14 -7 -11 -32 1 -7 -3 -13 -9
-13 -5 0 -10 5 -10 12 0 21 -13 -1 -14 -24 -1 -15 -7 -23 -19 -22 -9 1 -17 -2
-17 -7 0 -5 6 -9 13 -9 9 0 8 -3 -2 -9 -11 -7 -11 -10 0 -16 9 -6 8 -10 -7
-15 -24 -9 -40 -1 -23 12 11 8 11 9 -1 5 -18 -5 -16 -64 5 -134 25 -84 -7 -79
-44 7 -64 149 -21 342 104 458 117 110 250 146 400 107z m-1747 -60 c-6 -13
-15 -22 -19 -19 -5 2 -1 14 9 24 22 26 24 25 10 -5z m-89 -46 c-12 -23 -11
-30 2 -26 6 1 14 -4 16 -11 6 -16 -16 -12 -36 6 -12 12 -12 15 0 23 12 8 12
10 -1 19 -12 7 -10 9 7 7 17 -1 20 -5 12 -18z m68 -36 c-3 -10 -5 -2 -5 17 0
19 2 27 5 18 2 -10 2 -26 0 -35z m4329 19 c65 -47 138 -135 177 -213 58 -115
79 -211 79 -364 1 -158 -20 -247 -87 -373 -60 -113 -123 -189 -223 -271 -125
-102 -385 -231 -434 -215 -14 4 -18 2 -14 -5 10 -16 -3 -14 -20 3 -20 21 -18
24 21 20 32 -2 35 0 31 22 -5 27 8 33 18 8 3 -8 10 -12 16 -9 6 4 7 11 4 17
-4 6 2 8 17 3 19 -5 21 -4 9 4 -8 6 -22 11 -31 11 -9 0 -29 12 -45 27 -28 26
-28 26 -7 36 12 5 23 19 25 30 2 11 10 22 18 24 13 4 13 3 0 -6 -13 -10 -13
-12 0 -21 11 -7 16 -5 18 10 2 11 10 20 19 20 14 0 13 -3 -1 -25 -14 -21 -14
-25 -2 -25 8 0 19 14 25 30 11 34 22 37 56 14 14 -9 25 -14 25 -10 0 3 0 9 0
14 0 4 -4 7 -10 7 -5 0 -16 9 -24 20 -10 12 -19 16 -23 10 -14 -17 -35 -16
-48 2 -11 15 -10 21 8 39 20 21 47 22 47 3 0 -4 -7 -6 -15 -3 -11 5 -13 2 -9
-10 3 -9 10 -16 14 -16 11 0 31 26 24 32 -3 3 0 9 7 14 7 4 10 3 6 -3 -4 -6 2
-13 13 -16 24 -6 38 11 16 19 -16 6 -23 34 -8 34 5 0 18 -14 31 -31 13 -17 25
-28 28 -25 3 2 16 -7 29 -21 13 -14 27 -23 31 -20 8 9 -44 57 -63 57 -7 0 -14
7 -14 16 0 18 -23 44 -39 44 -6 0 -11 7 -11 15 0 9 -6 12 -16 8 -16 -6 -16 -7
0 -18 22 -16 20 -24 -4 -22 -11 1 -20 7 -20 15 0 7 -4 10 -10 7 -16 -10 -12
-23 10 -30 11 -4 18 -10 15 -15 -9 -14 -34 -5 -65 25 -16 16 -33 26 -36 22 -9
-8 5 -27 21 -27 16 0 28 -27 14 -36 -5 -3 -21 6 -34 20 -13 14 -32 26 -41 26
-13 0 -10 -7 14 -28 32 -28 42 -52 22 -52 -5 0 -10 5 -10 11 0 7 -12 22 -27
35 -23 19 -29 21 -31 9 -2 -10 -12 -14 -30 -10 -24 4 -24 3 -9 -12 12 -13 19
-14 30 -4 17 13 43 6 51 -14 8 -22 -11 -28 -23 -8 -9 17 -10 17 -30 -1 -12
-11 -21 -25 -21 -33 0 -18 10 -16 25 4 11 14 16 15 28 5 9 -8 18 -9 21 -3 7
10 56 -9 56 -21 0 -13 -28 -9 -33 5 -4 9 -7 9 -17 0 -11 -10 -16 -9 -26 5 -18
24 -31 6 -15 -21 9 -15 10 -18 1 -10 -7 6 -18 9 -25 6 -8 -2 -19 5 -25 17 -6
11 -16 18 -21 14 -7 -4 -5 -12 4 -22 8 -10 12 -24 9 -32 -4 -13 -3 -13 11 -1
10 8 17 9 17 3 0 -6 -8 -16 -17 -21 -16 -9 -16 -12 -3 -22 13 -9 13 -10 0 -6
-8 2 -16 16 -17 32 -2 28 -23 62 -23 37 0 -7 -4 -12 -9 -12 -6 0 -4 12 4 27
10 19 11 31 3 40 -11 14 -28 9 -28 -8 0 -6 5 -7 10 -4 18 11 11 -11 -10 -30
-17 -16 -20 -16 -26 -2 -3 9 -12 13 -20 10 -8 -3 -14 0 -14 7 0 6 5 8 10 5 6
-3 10 0 10 7 1 8 6 6 15 -6 13 -17 15 -18 15 -3 0 9 -6 17 -12 17 -8 0 -5 7 6
15 11 8 15 15 9 15 -7 0 -15 -5 -18 -11 -4 -6 -13 -8 -20 -5 -21 8 -40 -72
-20 -86 6 -5 3 -8 -7 -8 -9 0 -20 5 -23 10 -3 6 -2 10 4 10 6 0 9 13 8 29 -2
24 -6 29 -25 27 -26 -3 -42 -16 -19 -16 16 0 33 -18 24 -26 -10 -10 -67 59
-67 80 0 21 10 26 102 51 274 73 456 175 603 338 51 56 121 174 110 185 -2 2
-37 -26 -77 -63 -133 -123 -302 -229 -457 -285 -103 -38 -308 -93 -320 -86
-15 10 -35 137 -36 226 0 71 4 93 25 135 30 61 66 85 173 121 109 35 276 121
361 186 109 82 213 224 246 336 7 23 16 42 20 42 4 0 25 -13 46 -28z m-4350
-35 c-2 -12 2 -29 7 -38 17 -27 2 -47 -30 -41 -19 4 -22 7 -10 10 9 2 15 9 11
15 -3 7 2 3 12 -8 16 -20 16 -20 10 5 -12 40 -14 90 -5 84 5 -3 7 -15 5 -27z
m-76 -9 c0 -6 -6 -8 -13 -5 -8 3 -20 -3 -28 -14 -7 -10 -17 -19 -22 -19 -5 0
-4 6 2 14 7 8 8 16 4 18 -4 3 -2 3 5 2 7 -2 15 3 18 11 6 15 34 9 34 -7z m908
-59 c-11 -17 -11 -23 0 -26 12 -5 7 -23 -6 -23 -12 0 -12 43 0 57 16 20 20 15
6 -8z m-968 1 c0 -5 -5 -10 -11 -10 -5 0 -7 5 -4 10 3 6 8 10 11 10 2 0 4 -4
4 -10z m1073 -30 c-3 -12 -8 -19 -11 -16 -5 6 5 36 12 36 2 0 2 -9 -1 -20z
m-539 -15 c24 -18 15 -30 -12 -16 -28 15 -32 14 -26 -4 4 -8 1 -15 -5 -15 -12
0 -14 11 -5 34 8 20 23 20 48 1z m56 -25 c0 -5 -4 -10 -9 -10 -6 0 -13 5 -16
10 -3 6 1 10 9 10 9 0 16 -4 16 -10z m1615 -10 c-4 -12 -2 -20 6 -20 20 0 6
-167 -20 -225 -27 -60 -69 -117 -82 -110 -5 4 3 21 17 40 44 58 66 131 65 220
0 77 5 115 15 115 3 0 2 -9 -1 -20z m-482 3 c-7 -2 -19 -2 -25 0 -7 3 -2 5 12
5 14 0 19 -2 13 -5z m228 -26 c-8 -8 -11 -7 -11 4 0 20 13 34 18 19 3 -7 -1
-17 -7 -23z m-1421 3 c0 -5 -4 -10 -10 -10 -5 0 -10 5 -10 10 0 6 5 10 10 10
6 0 10 -4 10 -10z m50 -20 c0 -5 -4 -10 -10 -10 -5 0 -10 5 -10 10 0 6 5 10
10 10 6 0 10 -4 10 -10z m-348 -93 c51 -26 94 -58 134 -100 32 -34 43 -48 24
-32 -19 17 -51 39 -70 49 -19 11 -37 23 -40 26 -3 4 -27 17 -53 29 -58 26
-164 36 -227 22 -42 -10 -40 -10 23 -5 40 3 66 1 63 -4 -3 -5 7 -12 22 -15 17
-4 33 -16 40 -31 6 -14 18 -26 26 -26 7 0 17 -11 20 -25 4 -14 14 -25 23 -25
15 0 14 2 -3 16 -18 15 -18 15 3 5 12 -6 23 -16 26 -23 3 -9 10 -7 21 7 16 19
16 19 5 -7 -7 -15 -17 -24 -22 -21 -18 11 -66 10 -64 -1 3 -19 -69 -18 -105 0
-37 19 -98 25 -95 9 1 -5 -4 -9 -10 -7 -7 1 -13 -3 -13 -9 0 -5 -5 -7 -12 -3
-6 4 -8 3 -5 -3 4 -6 0 -18 -7 -29 -11 -14 -17 -16 -27 -7 -8 6 -31 14 -51 18
-21 4 -36 11 -33 15 3 5 -2 13 -11 18 -11 6 -13 11 -5 16 6 4 11 3 11 -1 0 -5
9 -9 20 -10 15 -1 20 4 20 24 0 17 -4 23 -14 20 -10 -4 -12 0 -9 14 3 12 14
19 29 19 12 0 26 4 29 10 4 6 -1 7 -11 3 -12 -5 -15 -3 -9 6 4 8 -3 6 -18 -3
-14 -10 -28 -28 -31 -42 -5 -17 -12 -24 -21 -20 -9 3 -12 0 -8 -10 3 -8 -1
-14 -8 -14 -10 -1 -8 -5 5 -15 20 -15 12 -40 -11 -31 -8 3 -22 -1 -31 -10 -15
-15 -14 -16 7 -9 17 5 22 4 19 -6 -3 -9 -17 -13 -37 -12 -27 1 -30 -1 -20 -13
8 -10 8 -14 0 -14 -6 0 -11 -9 -11 -20 0 -11 -6 -19 -12 -17 -8 1 -13 -9 -12
-25 0 -15 -4 -25 -8 -22 -4 3 -8 -2 -8 -10 0 -9 -5 -16 -11 -16 -6 0 -9 9 -6
20 3 11 1 20 -5 20 -6 0 -8 -14 -3 -36 4 -23 3 -34 -4 -30 -12 8 -5 -104 10
-154 19 -64 31 -90 39 -85 5 3 12 0 16 -6 4 -8 3 -9 -4 -5 -22 13 -12 -10 13
-34 17 -16 25 -19 25 -9 0 8 9 2 21 -14 11 -15 24 -25 27 -23 4 2 13 -2 20
-10 7 -8 9 -14 5 -14 -4 0 -2 -4 4 -8 7 -4 29 -6 48 -4 34 4 35 5 35 48 0 24
4 44 9 44 21 0 41 -13 41 -26 0 -8 5 -14 11 -14 5 0 8 3 6 8 -9 13 141 8 155
-6 8 -8 9 -12 1 -12 -7 0 -15 5 -18 10 -3 6 -12 10 -18 9 -9 0 -9 -2 1 -6 6
-2 12 -16 12 -29 0 -18 -5 -24 -21 -24 -17 0 -20 5 -17 23 4 20 0 22 -42 24
-45 1 -47 0 -42 -23 2 -13 11 -24 18 -24 8 0 14 -9 14 -19 0 -15 8 -21 33 -24
17 -2 -2 -4 -43 -5 -121 -1 -188 26 -283 117 -151 143 -168 393 -39 565 46 61
129 121 204 148 42 15 76 18 164 16 106 -3 114 -5 186 -41z m748 39 c0 -2 -6
-9 -14 -15 -11 -9 -16 -9 -22 0 -4 7 -3 9 4 5 6 -3 13 -2 17 4 6 10 15 14 15
6z m555 -33 c0 -35 -13 -63 -31 -63 -5 0 -3 5 4 12 7 7 12 26 12 43 0 25 6 45
14 45 1 0 1 -17 1 -37z m-885 -53 c0 -5 -5 -10 -11 -10 -5 0 -7 5 -4 10 3 6 8
10 11 10 2 0 4 -4 4 -10z m100 -6 c0 -2 -21 -4 -47 -3 -32 0 -42 3 -29 8 18 7
76 3 76 -5z m-219 -41 c13 -16 12 -17 -3 -4 -10 7 -18 15 -18 17 0 8 8 3 21
-13z m53 -52 c-2 -3 -12 3 -22 13 -16 17 -16 18 5 5 12 -7 20 -15 17 -18z m32
-6 c-4 -10 1 -15 15 -15 11 0 17 -5 14 -10 -10 -16 -45 7 -39 25 4 8 8 15 11
15 3 0 3 -7 -1 -15z m909 -55 c3 -6 -1 -7 -9 -4 -18 7 -21 14 -7 14 6 0 13 -4
16 -10z m-18 -27 c0 -9 -4 -10 -14 -2 -7 6 -13 12 -13 14 0 1 6 2 13 2 8 0 14
-6 14 -14z m-1616 -29 c-11 -15 -21 -24 -21 -20 0 10 34 55 39 51 2 -2 -6 -16
-18 -31z m1649 26 c-12 -8 -10 -10 10 -11 23 0 23 -1 5 -9 -11 -5 -15 -9 -9
-9 6 -1 11 -8 11 -16 0 -13 -3 -13 -19 2 -23 21 -24 53 0 53 14 0 15 -2 2 -10z
m-324 -11 c24 -6 44 -15 44 -19 0 -5 -16 -4 -35 1 -39 11 -57 5 -49 -15 3 -7
-2 -13 -10 -13 -8 0 -13 4 -10 8 2 4 0 10 -6 14 -5 3 -10 -2 -10 -12 0 -14 -2
-15 -9 -5 -6 11 -17 11 -52 2 -69 -18 -210 -91 -250 -130 -47 -45 -78 -130
-84 -228 -3 -52 -2 -69 4 -52 5 14 10 18 10 10 1 -8 3 -33 6 -55 4 -35 3 -36
-4 -10 l-9 30 -1 -27 c0 -15 4 -30 10 -33 6 -4 8 -13 5 -21 -3 -7 -1 -16 5
-19 5 -4 7 -10 5 -14 -3 -4 0 -13 6 -21 8 -12 9 -12 4 2 -3 10 0 20 6 24 15
10 28 -17 21 -46 -5 -21 -4 -23 8 -14 8 6 22 14 31 17 14 5 17 1 15 -16 -1
-12 3 -22 8 -22 6 0 22 -11 35 -24 47 -44 89 -73 137 -92 l48 -20 -59 6 c-39
4 -80 17 -120 38 -51 27 -61 36 -59 57 1 14 0 18 -3 8 -3 -10 -9 -18 -13 -18
-19 0 -95 96 -124 157 -28 60 -32 78 -32 153 0 189 112 336 300 396 50 16 172
17 231 3z m-1187 -23 l24 -14 -22 -7 c-12 -3 -33 -24 -48 -46 -25 -38 -46 -49
-57 -30 -3 5 1 14 9 21 8 7 25 30 37 51 24 44 24 43 57 25z m1574 -13 c12 -10
23 -26 25 -36 3 -17 1 -17 -27 -2 -19 9 -31 23 -31 35 0 25 6 25 33 3z m-1868
-13 c3 -5 1 -10 -4 -10 -6 0 -11 5 -11 10 0 6 2 10 4 10 3 0 8 -4 11 -10z
m1519 -36 c4 -10 0 -11 -18 -4 -13 5 -27 6 -30 3 -3 -4 -6 -2 -6 4 0 15 48 13
54 -3z m96 6 c0 -5 -4 -10 -10 -10 -5 0 -10 5 -10 10 0 6 5 10 10 10 6 0 10
-4 10 -10z m465 -26 c108 -2 116 -3 90 -14 -28 -12 -173 -12 -180 0 -4 6 -11
7 -17 4 -7 -4 -8 -2 -4 5 6 8 1 10 -16 6 -27 -6 -54 8 -44 24 5 8 18 6 44 -6
25 -12 66 -18 127 -19z m1422 5 c84 -40 132 -131 140 -265 3 -45 3 -102 -1
-126 l-7 -45 -72 -13 c-229 -41 -462 -165 -587 -312 -67 -80 -104 -153 -129
-251 l-19 -72 -48 -7 c-27 -3 -113 -7 -191 -7 l-141 -1 -27 31 c-55 66 -98
178 -110 289 -15 128 44 317 130 421 l21 26 18 -49 c20 -58 72 -119 120 -142
87 -41 210 1 262 90 42 71 47 120 23 211 -28 107 -29 104 16 130 158 90 498
142 602 92z m-1292 1 c3 -5 2 -10 -4 -10 -5 0 -13 5 -16 10 -3 6 -2 10 4 10 5
0 13 -4 16 -10z m-2125 -74 c0 -26 -6 -18 -14 19 -5 22 -4 26 4 15 5 -8 10
-24 10 -34z m1311 33 c41 -14 59 -34 59 -67 0 -33 -22 -23 -32 16 -11 43 -49
53 -88 23 -16 -11 -34 -21 -39 -21 -16 0 -41 -42 -41 -69 l0 -25 -21 20 -20
21 53 56 c56 58 72 64 129 46z m-237 -15 c5 -14 4 -15 -9 -4 -17 14 -19 20 -6
20 5 0 12 -7 15 -16z m-968 -26 c-8 -20 -11 -41 -6 -54 11 -29 89 -84 118 -84
15 0 22 -5 19 -12 -2 -7 -12 -12 -22 -10 -10 2 -14 -1 -10 -7 3 -6 -1 -11 -9
-11 -8 0 -18 9 -21 20 -3 11 -23 32 -43 47 -66 48 -71 65 -34 121 20 31 23 27
8 -10z m2433 -15 c21 -78 33 -175 27 -208 -6 -32 -10 -35 -40 -35 -23 0 -36 6
-41 17 -10 27 6 247 19 255 20 13 25 9 35 -29z m-572 -124 c-201 -172 -296
-544 -191 -751 23 -46 24 -48 5 -58 -34 -18 -48 -11 -80 38 -47 73 -65 158
-58 277 10 184 68 342 173 469 l54 66 73 0 72 0 -48 -41z m-1977 25 c0 -8 -19
-13 -24 -6 -3 5 1 9 9 9 8 0 15 -2 15 -3z m106 -75 c3 -5 -10 0 -29 11 -19 12
-40 19 -47 18 -7 -2 -14 4 -15 13 -2 13 5 12 41 -8 24 -14 46 -29 50 -34z m17
-33 c4 -10 0 -12 -15 -8 -15 4 -17 7 -6 13 17 11 15 11 21 -5z m2061 -8 c7
-12 1 -36 -27 -95 -43 -92 -57 -157 -57 -264 0 -44 -3 -79 -7 -79 -5 0 -18 3
-30 6 -21 6 -23 12 -23 73 0 93 15 167 57 274 42 109 60 127 87 85z m-1849
-107 c-11 -10 -31 -22 -45 -25 -23 -5 -23 -5 3 7 15 7 24 17 20 21 -5 4 -1 6
7 4 10 -2 14 4 13 16 -1 13 2 15 10 7 8 -8 6 -16 -8 -30z m434 -7 c7 -26 9
-49 6 -52 -3 -3 -5 2 -5 11 0 10 -5 17 -11 17 -5 0 -7 4 -4 10 3 5 -7 2 -23
-7 -17 -10 -28 -23 -25 -30 4 -9 0 -11 -11 -7 -10 4 -16 1 -16 -9 0 -9 -8 -23
-17 -33 -16 -15 -17 -15 -25 2 -5 12 -6 5 -2 -16 4 -19 3 -32 -1 -28 -10 10
-45 -10 -45 -25 0 -7 4 -6 10 3 8 13 10 13 10 -2 0 -9 7 -24 16 -32 14 -15 13
-16 -10 -16 -27 0 -43 -15 -27 -25 6 -3 8 -12 5 -20 -4 -8 -10 -13 -15 -10 -4
3 -6 -8 -4 -25 2 -22 -1 -30 -11 -30 -9 0 -12 -5 -8 -12 10 -16 -54 -4 -111
21 -52 23 -52 24 -9 116 45 98 131 175 244 222 30 12 60 23 66 23 7 0 17 -21
23 -46z m538 -120 c-3 -3 -12 -4 -19 -1 -8 3 -5 6 6 6 11 1 17 -2 13 -5z
m2399 -259 c9 -271 1 -325 -49 -306 -44 17 -47 37 -27 157 10 60 23 154 29
209 6 55 14 125 18 155 7 54 7 55 15 20 4 -19 11 -125 14 -235z m-166 226 c0
-5 -3 -23 -6 -40 -6 -26 -10 -31 -28 -26 -21 6 -21 6 -2 -9 19 -16 19 -16 -3
-16 -15 0 -21 -5 -18 -13 3 -8 -1 -14 -9 -14 -10 0 -12 7 -9 21 5 18 5 19 -5
4 -6 -9 -17 -15 -25 -12 -8 4 -15 2 -15 -4 0 -5 11 -13 24 -16 13 -3 27 -13
30 -22 5 -14 4 -15 -9 -4 -8 7 -15 9 -15 6 0 -4 -6 -4 -12 1 -19 11 -48 14
-48 4 0 -5 12 -12 26 -15 15 -4 24 -9 22 -12 -3 -2 -19 1 -37 7 -38 13 -52 5
-25 -16 18 -13 17 -14 -10 -12 -24 2 -32 -3 -40 -25 -7 -20 -6 -30 8 -43 9
-10 15 -20 12 -23 -3 -2 -14 6 -25 19 -11 13 -22 21 -25 18 -9 -9 4 -40 14
-34 4 3 11 -2 14 -11 3 -9 2 -12 -5 -9 -6 4 -20 -1 -31 -12 -21 -18 -21 -18
-9 4 14 27 14 33 1 33 -5 0 -10 -6 -10 -14 0 -7 -8 -20 -17 -27 -10 -8 -14 -9
-10 -2 4 6 3 14 -3 18 -5 3 -10 11 -10 17 0 7 6 6 15 -2 12 -10 15 -10 15 4 0
9 5 16 10 16 6 0 10 7 10 15 0 8 -6 15 -14 15 -8 0 -13 -8 -12 -17 1 -13 -5
-17 -21 -15 -17 2 -21 -1 -17 -12 4 -9 -8 -29 -30 -52 -20 -20 -36 -44 -36
-53 -1 -14 -2 -13 -11 2 -5 9 -16 17 -22 17 -23 0 -38 22 -26 37 7 7 8 13 3
13 -5 0 -2 4 6 10 8 5 11 12 8 16 -10 9 -39 -22 -30 -31 4 -5 -1 -5 -11 -2
-24 9 -66 -31 -46 -44 8 -5 18 -9 22 -9 5 0 5 -5 2 -11 -5 -7 -14 -4 -26 7
-18 17 -20 16 -34 -2 -8 -10 -15 -22 -15 -26 0 -5 -8 -8 -17 -8 -15 0 -16 -2
-3 -10 14 -9 7 -14 -13 -11 -4 1 -7 -4 -5 -11 5 -23 -25 -109 -36 -105 -7 2
-11 28 -10 64 3 196 215 388 515 467 100 27 139 31 139 17z m510 -21 c0 -5 -4
-10 -10 -10 -5 0 -10 5 -10 10 0 6 5 10 10 10 6 0 10 -4 10 -10z m130 -10 c0
-5 -2 -10 -4 -10 -3 0 -8 5 -11 10 -3 6 -1 10 4 10 6 0 11 -4 11 -10z m-170
-20 c-24 -15 -36 -11 -14 4 10 8 21 12 24 10 2 -3 -2 -9 -10 -14z m42 -12 c-7
-7 -12 -8 -12 -2 0 14 12 26 19 19 2 -3 -1 -11 -7 -17z m48 -24 c0 -2 -7 -4
-15 -4 -8 0 -15 4 -15 10 0 5 7 7 15 4 8 -4 15 -8 15 -10z m75 -49 c0 -23 -1
-24 -14 -8 -9 13 -15 14 -18 6 -3 -7 -9 -13 -14 -13 -16 0 1 21 25 30 11 5 21
9 21 9 0 1 0 -10 0 -24z m-3462 0 c-3 -9 -8 -14 -10 -11 -3 3 -2 9 2 15 9 16
15 13 8 -4z m3397 5 c0 -5 -2 -10 -4 -10 -3 0 -8 5 -11 10 -3 6 -1 10 4 10 6
0 11 -4 11 -10z m-3715 -196 c164 -79 438 -176 634 -223 68 -17 212 -44 320
-60 385 -59 451 -64 956 -67 l470 -3 3 -56 c4 -67 -19 -186 -49 -254 -25 -60
-17 -58 -274 -67 -554 -19 -1206 71 -1665 228 -322 111 -523 232 -621 375 -36
52 -59 138 -59 220 l0 63 68 -42 c37 -23 135 -74 217 -114z m2965 111 c0 -8
-2 -15 -4 -15 -2 0 -6 7 -10 15 -3 8 -1 15 4 15 6 0 10 -7 10 -15z m767 -1
c-3 -3 -12 -4 -19 -1 -8 3 -5 6 6 6 11 1 17 -2 13 -5z m-2039 -26 c-6 -18 -28
-21 -28 -4 0 9 7 16 16 16 9 0 14 -5 12 -12z m1282 -8 c0 -5 -2 -10 -4 -10 -3
0 -8 5 -11 10 -3 6 -1 10 4 10 6 0 11 -4 11 -10z m1087 -81 c-8 -94 -43 -166
-117 -238 -181 -177 -640 -348 -1120 -416 -156 -22 -144 -25 -168 53 -33 104
-41 151 -42 225 0 37 1 67 3 67 36 0 444 66 471 76 12 4 16 0 16 -15 0 -12 9
-38 19 -59 50 -97 172 -147 266 -108 106 45 155 108 164 214 l6 64 135 47 c74
26 185 72 245 103 61 31 114 57 119 57 5 1 6 -30 3 -70z m-3177 41 c61 -14
157 -53 141 -58 -6 -2 -19 2 -27 9 -14 11 -18 10 -28 -4 -10 -13 -15 -14 -26
-4 -10 10 -12 9 -7 -4 9 -25 -8 -45 -26 -30 -12 9 -16 9 -19 -1 -4 -10 -8 -10
-21 1 -9 7 -15 17 -12 21 3 5 -1 11 -7 13 -8 4 -9 6 -2 6 6 1 17 -6 24 -14 11
-13 15 -12 37 5 13 10 31 16 39 13 8 -3 14 0 14 6 0 13 -151 5 -215 -11 -33
-9 -37 -12 -20 -18 11 -4 26 -5 33 -3 6 3 12 -2 12 -10 0 -8 6 -18 13 -20 6
-3 -3 -4 -20 -4 -18 1 -33 5 -33 8 0 3 -11 4 -25 1 -14 -2 -25 0 -25 7 0 6 -8
10 -17 9 -40 -3 -93 3 -93 10 0 12 75 52 124 68 50 15 126 17 186 4z m2060
-34 c0 -2 -7 -9 -15 -16 -13 -11 -14 -10 -9 4 5 14 24 23 24 12z m-270 -28 c0
-11 7 -18 20 -18 11 0 20 -4 20 -9 0 -14 -41 0 -47 15 -3 8 -12 14 -20 14 -8
0 -12 4 -9 8 10 16 36 9 36 -10z m125 -4 c-8 -9 -15 -20 -15 -26 0 -6 -2 -9
-5 -6 -9 8 17 58 27 52 4 -3 1 -12 -7 -20z m90 8 c-3 -3 -11 0 -18 7 -9 10 -8
11 6 5 10 -3 15 -9 12 -12z m-1875 -17 c14 -17 15 -17 -27 -19 -18 -1 -33 2
-33 6 0 4 7 8 15 8 8 0 15 5 15 10 0 15 16 12 30 -5z m51 -2 c13 -16 12 -17
-3 -4 -14 11 -18 11 -18 1 0 -8 -3 -11 -6 -7 -5 5 3 27 10 27 2 0 10 -8 17
-17z m1549 -23 c0 -5 -4 -10 -10 -10 -5 0 -10 5 -10 10 0 6 5 10 10 10 6 0 10
-4 10 -10z m-1710 -20 c0 -5 -4 -10 -9 -10 -6 0 -13 5 -16 10 -3 6 1 10 9 10
9 0 16 -4 16 -10z m2856 -587 c-24 -48 -84 -111 -143 -152 -51 -35 -200 -106
-303 -144 -97 -36 -405 -116 -541 -140 l-76 -14 20 40 c15 31 18 55 15 101 -3
34 -8 69 -12 78 -6 13 -2 18 16 21 12 3 106 19 208 37 306 54 555 126 732 214
99 49 103 50 106 29 2 -12 -8 -43 -22 -70z m-3337 -43 c236 -78 434 -121 746
-165 281 -39 415 -47 770 -47 l330 0 -3 -58 c-4 -61 11 -104 50 -147 l20 -21
-69 -9 c-128 -15 -654 -9 -818 11 -419 49 -774 143 -1043 276 -186 92 -260
160 -282 256 l-7 31 92 -43 c51 -25 147 -62 214 -84z m2057 -119 c-8 -168 -12
-191 -34 -191 -22 0 -52 30 -52 52 0 17 25 124 61 261 6 23 14 35 21 31 7 -5
9 -51 4 -153z m-1684 -526 c47 -82 95 -166 107 -186 l21 -36 -24 -22 -25 -23
-32 63 c-49 96 -159 352 -159 369 0 26 22 -7 112 -165z m2451 96 l26 -38 -59
-122 c-33 -66 -63 -121 -67 -121 -5 0 -26 17 -46 38 l-37 38 72 122 c40 67 76
122 79 122 4 0 18 -17 32 -39z m-2188 -22 c152 -29 145 -25 106 -59 -18 -17
-38 -27 -44 -23 -6 3 -7 1 -3 -6 7 -11 -79 -111 -95 -111 -8 0 -111 178 -125
215 -6 16 -3 17 22 11 16 -3 79 -16 139 -27z m1975 25 c0 -15 -66 -114 -77
-114 -6 0 -28 19 -48 43 l-36 42 68 17 c76 18 93 21 93 12z m-297 -207 c48
-45 87 -85 87 -89 0 -5 -27 -45 -61 -89 l-60 -80 -47 40 c-26 22 -110 103
-186 180 -159 159 -160 141 9 163 l100 14 35 -30 c19 -16 74 -65 123 -109z
m-1279 125 l39 -7 -109 -89 c-59 -50 -143 -123 -185 -163 l-77 -74 -26 34
c-14 19 -26 38 -26 44 0 9 107 107 253 231 39 33 59 37 131 24z m579 -81 l58
-55 -78 -78 c-43 -43 -81 -77 -84 -76 -7 3 -199 214 -228 251 -13 16 -6 17
130 15 l144 -2 58 -55z m-468 -51 c20 -25 86 -97 145 -161 l109 -116 -78 -77
-78 -78 -89 109 c-110 133 -170 214 -178 240 -5 15 7 33 54 77 33 32 64 56 69
54 5 -2 25 -23 46 -48z m630 -100 c16 -15 20 -29 17 -50 -5 -36 -17 -39 -27
-7 -7 21 -7 21 -14 -5 -3 -15 -27 -50 -53 -77 -46 -47 -62 -71 -36 -54 7 4 24
6 38 5 28 -3 73 36 68 59 -2 8 5 14 17 14 11 0 21 8 23 18 2 9 8 17 13 17 5 0
9 5 9 11 0 5 -4 8 -8 5 -5 -3 -9 1 -9 8 0 11 4 12 19 3 10 -7 18 -17 18 -23 0
-6 -36 -46 -81 -89 l-80 -78 -52 51 -52 52 80 80 c44 44 82 80 84 80 3 0 14
-9 26 -20z m-713 -338 l79 -93 -51 -59 c-29 -33 -56 -58 -61 -55 -19 12 -269
356 -274 378 -4 16 -1 28 11 38 16 12 17 12 9 -1 -5 -9 -5 -12 1 -7 5 5 9 14
9 20 1 7 7 11 14 9 7 -1 9 2 6 8 -4 6 1 20 10 30 16 18 20 15 92 -78 42 -53
112 -139 155 -190z m1458 253 c16 -19 4 -35 -26 -35 -13 0 -24 -5 -24 -11 0
-6 7 -9 15 -5 22 8 19 0 -27 -70 -40 -63 -41 -64 -62 -47 -12 10 -22 18 -24
19 -1 1 17 26 40 55 24 30 51 66 61 82 20 31 29 33 47 12z m-1678 -438 l90
-119 -71 -70 -71 -71 -131 269 c-72 148 -139 288 -150 311 l-18 42 31 25 32
24 99 -146 c54 -81 140 -200 189 -265z m898 403 c0 -5 -5 -10 -11 -10 -5 0 -7
5 -4 10 3 6 8 10 11 10 2 0 4 -4 4 -10z m-10 -41 c-7 -11 -14 -18 -17 -15 -3
3 0 12 7 21 18 21 23 19 10 -6z m304 -74 l99 -94 -78 -96 -78 -96 -109 108
-108 107 48 46 c26 25 60 62 76 83 16 20 33 37 40 37 6 -1 56 -43 110 -95z
m579 6 c-24 -57 -75 -151 -83 -151 -11 0 -38 33 -41 50 -2 8 21 52 51 98 54
83 54 84 71 61 15 -20 15 -26 2 -58z m-1094 -65 l33 -34 -142 -139 c-79 -76
-161 -157 -183 -180 -22 -23 -44 -40 -49 -37 -5 3 -15 1 -22 -5 -13 -11 -30 2
-51 38 -5 9 49 70 181 202 104 104 191 189 194 189 4 0 21 -15 39 -34z m206
-231 l139 -134 -59 -63 c-32 -35 -66 -71 -75 -81 -16 -17 -23 -12 -146 113
-71 72 -130 135 -132 140 -3 7 126 160 133 160 1 0 64 -61 140 -135z m538 89
c-3 -8 -12 -14 -21 -14 -8 0 -12 -3 -9 -7 4 -3 -4 -21 -18 -39 -14 -18 -25
-36 -25 -41 0 -5 -9 -15 -19 -23 -11 -7 -17 -18 -14 -23 3 -6 1 -7 -5 -3 -12
7 -55 -48 -45 -58 4 -4 0 -4 -9 -1 -37 14 -27 38 58 141 67 80 90 102 100 93
7 -6 10 -17 7 -25z m177 -169 c0 -8 -27 -68 -61 -135 l-61 -122 -34 33 -34 33
23 25 c13 15 40 52 62 83 21 32 42 55 48 51 6 -3 7 -1 3 6 -4 6 0 23 9 37 13
20 19 23 31 13 8 -6 14 -17 14 -24z m-170 -15 c-6 -11 -15 -20 -20 -20 -6 0
-2 9 7 20 10 11 19 20 21 20 1 0 -2 -9 -8 -20z m-28 -2 c-9 -9 -9 -15 1 -27
10 -12 9 -13 -2 -6 -10 6 -13 4 -9 -6 3 -8 -1 -20 -8 -27 -9 -8 -14 -9 -14 -2
0 6 -5 8 -10 5 -6 -4 -8 -10 -6 -14 3 -3 -4 -7 -15 -7 -10 0 -19 4 -19 9 0 12
72 87 84 87 6 0 5 -5 -2 -12z m-716 -238 l72 -75 -59 -64 -60 -65 -109 115
c-59 64 -121 130 -135 148 l-27 32 58 62 59 63 65 -71 c35 -38 97 -104 136
-145z m-495 95 l25 -33 -90 -94 c-98 -102 -97 -102 -125 -32 -13 32 -12 32 71
113 46 44 85 80 88 80 3 0 17 -15 31 -34z m988 -49 c44 -44 61 -68 55 -77 -13
-22 -113 -147 -121 -152 -5 -3 -41 26 -82 64 l-75 69 29 33 c63 69 120 127
125 127 3 0 34 -29 69 -64z m-928 -48 c-1 -4 109 -127 203 -225 l78 -82 -58
-65 c-31 -36 -60 -66 -63 -66 -8 1 -151 192 -183 245 -14 22 -27 55 -30 72 -4
28 0 36 29 55 33 23 42 38 23 38 -6 0 -13 -7 -16 -15 -4 -8 -11 -12 -17 -8 -6
4 -7 1 -3 -6 6 -8 2 -11 -10 -9 -11 2 -18 -2 -16 -9 1 -7 -3 -13 -9 -13 -8 0
-8 -5 1 -15 7 -9 8 -15 2 -15 -28 0 -19 35 20 80 35 41 53 55 49 38z m1146
-198 c-1 -3 -22 -43 -46 -90 l-43 -85 -63 59 -64 59 38 46 c21 25 48 64 61 85
l24 39 48 -54 c26 -30 47 -56 45 -59z m-349 -149 l194 -187 -38 -77 c-21 -43
-44 -76 -51 -75 -6 2 -51 41 -100 87 -228 219 -309 297 -317 310 -6 9 9 30 50
72 32 32 61 59 64 58 3 0 92 -84 198 -188z m-835 -56 l98 -130 -28 -22 c-16
-13 -31 -23 -34 -23 -6 0 -116 225 -148 305 -17 41 -17 45 -3 25 9 -13 61 -83
115 -155z m447 -20 l34 -35 -25 -26 c-13 -14 -46 -44 -72 -66 l-48 -41 -35 34
-34 33 67 68 c37 37 70 68 73 68 3 0 21 -16 40 -35z m254 -268 l177 -172 -44
-89 -43 -89 -49 42 c-28 24 -118 113 -202 198 l-152 156 62 63 c34 35 65 63
68 64 4 0 86 -78 183 -173z m-519 -37 c-27 -27 -53 -50 -58 -50 -4 0 -17 19
-27 43 l-19 42 42 43 41 42 35 -35 35 -35 -49 -50z m142 -73 c72 -84 185 -201
262 -271 77 -69 73 -79 -34 -84 -113 -6 -164 15 -250 102 -39 40 -85 99 -103
134 l-34 63 24 19 c14 10 33 37 43 59 10 23 23 41 29 40 6 0 35 -28 63 -62z"/>
<path d="M7160 8617 c-14 -7 -26 -19 -28 -28 -4 -20 132 -113 153 -105 39 15
30 74 -18 110 -42 32 -76 39 -107 23z"/>
<path d="M7086 8494 c-26 -26 -19 -40 41 -83 61 -43 102 -52 123 -26 17 21 -9
58 -68 96 -52 33 -74 36 -96 13z"/>
<path d="M7016 8374 c-25 -25 -19 -41 27 -72 94 -65 139 -74 152 -33 9 30 -5
49 -63 86 -62 38 -92 43 -116 19z"/>
<path d="M6952 8258 c-23 -23 -12 -46 36 -81 76 -55 91 -61 118 -48 31 14 31
51 2 78 -60 55 -129 78 -156 51z"/>
<path d="M6885 8130 c-9 -10 -15 -25 -12 -33 5 -14 138 -97 156 -97 6 0 17 13
26 29 14 29 14 30 -26 65 -64 58 -113 71 -144 36z"/>
<path d="M6834 8020 c-23 -9 -38 -36 -28 -51 8 -13 106 -75 131 -83 13 -4 29
0 44 12 22 19 22 20 6 46 -31 46 -117 89 -153 76z"/>
<path d="M6750 7885 c-21 -25 -6 -46 59 -86 72 -43 83 -46 105 -23 26 25 19
41 -37 84 -57 42 -104 52 -127 25z"/>
<path d="M6692 7768 c-29 -29 -2 -68 76 -108 40 -21 44 -21 67 -6 44 29 25 65
-54 106 -46 23 -72 25 -89 8z"/>
<path d="M6104 8244 c-2 -20 0 -21 12 -9 17 17 17 22 2 28 -8 3 -14 -5 -14
-19z"/>
<path d="M6117 8143 c4 -11 3 -14 -5 -9 -7 4 -12 2 -12 -3 0 -6 4 -11 9 -11
13 0 32 26 24 33 -12 13 -22 7 -16 -10z"/>
<path d="M6140 8120 c0 -6 7 -10 15 -10 8 0 15 2 15 4 0 2 -7 6 -15 10 -8 3
-15 1 -15 -4z"/>
<path d="M6110 8087 c14 -14 28 -23 32 -21 3 2 8 -2 11 -8 2 -8 8 -9 13 -4 5
5 4 11 -4 13 -7 3 -18 10 -25 17 -6 7 -21 15 -32 20 -17 6 -16 3 5 -17z"/>
<path d="M6090 8064 c0 -12 20 -41 20 -30 0 5 9 -1 20 -14 11 -13 23 -20 26
-17 4 3 0 12 -8 19 -39 36 -58 50 -58 42z"/>
<path d="M6070 8010 c0 -5 5 -10 11 -10 7 0 18 -8 25 -17 7 -10 16 -15 20 -10
4 4 -2 16 -14 27 -23 22 -42 26 -42 10z"/>
<path d="M6055 7971 c-6 -11 9 -23 19 -14 9 9 7 23 -3 23 -6 0 -12 -4 -16 -9z"/>
<path d="M6140 7971 c0 -5 5 -13 10 -16 6 -3 10 -2 10 4 0 5 -4 13 -10 16 -5
3 -10 2 -10 -4z"/>
<path d="M6080 7950 c0 -5 5 -10 10 -10 6 0 10 5 10 10 0 6 -4 10 -10 10 -5 0
-10 -4 -10 -10z"/>
<path d="M6040 7931 c0 -6 5 -11 11 -11 6 0 9 -6 7 -12 -6 -16 29 -54 39 -44
5 4 1 13 -8 20 -9 6 -18 20 -20 30 -4 21 -29 35 -29 17z"/>
<path d="M6125 7930 c3 -5 8 -10 11 -10 2 0 4 5 4 10 0 6 -5 10 -11 10 -5 0
-7 -4 -4 -10z"/>
<path d="M6090 7912 c0 -5 7 -13 16 -16 10 -4 14 -1 12 6 -5 15 -28 23 -28 10z"/>
<path d="M6025 7900 c3 -5 8 -10 11 -10 2 0 4 5 4 10 0 6 -5 10 -11 10 -5 0
-7 -4 -4 -10z"/>
<path d="M6025 7868 c11 -6 25 -19 32 -27 6 -9 15 -13 19 -8 10 10 -31 47 -53
47 -16 -1 -16 -2 2 -12z"/>
<path d="M6017 7819 c16 -15 32 -25 36 -22 12 7 -30 50 -48 50 -10 0 -6 -9 12
-28z"/>
<path d="M5960 7822 c0 -6 5 -12 12 -14 6 -2 8 -10 4 -16 -5 -8 -16 -10 -28
-6 -18 5 -19 4 -7 -9 8 -8 16 -13 18 -11 2 2 11 -2 19 -9 13 -10 14 -8 7 12
-6 20 -4 22 14 16 29 -9 26 0 -9 25 -16 12 -30 17 -30 12z"/>
<path d="M6010 7760 c0 -5 5 -10 10 -10 6 0 10 5 10 10 0 6 -4 10 -10 10 -5 0
-10 -4 -10 -10z"/>
<path d="M5896 7751 c-4 -7 -5 -15 -2 -18 9 -9 19 4 14 18 -4 11 -6 11 -12 0z"/>
<path d="M5922 7730 c0 -20 4 -30 14 -30 10 0 12 5 7 13 -4 6 -6 20 -5 30 2 9
-1 17 -6 17 -5 0 -9 -13 -10 -30z"/>
<path d="M5957 7744 c-8 -8 11 -34 24 -34 5 0 9 7 9 16 0 8 -4 13 -9 10 -5 -4
-11 -1 -13 5 -2 5 -7 7 -11 3z"/>
<path d="M5865 7720 c-3 -5 -1 -10 4 -10 6 0 11 5 11 10 0 6 -2 10 -4 10 -3 0
-8 -4 -11 -10z"/>
<path d="M5891 7704 c0 -11 3 -14 6 -6 3 7 2 16 -1 19 -3 4 -6 -2 -5 -13z"/>
<path d="M5825 7680 c3 -5 8 -10 11 -10 2 0 4 5 4 10 0 6 -5 10 -11 10 -5 0
-7 -4 -4 -10z"/>
<path d="M5850 7680 c0 -5 5 -10 10 -10 6 0 10 5 10 10 0 6 -4 10 -10 10 -5 0
-10 -4 -10 -10z"/>
<path d="M5910 7680 c0 -5 5 -10 11 -10 5 0 7 5 4 10 -3 6 -8 10 -11 10 -2 0
-4 -4 -4 -10z"/>
<path d="M5790 7650 c0 -5 5 -10 10 -10 6 0 10 5 10 10 0 6 -4 10 -10 10 -5 0
-10 -4 -10 -10z"/>
<path d="M5830 7650 c0 -5 5 -10 10 -10 6 0 10 5 10 10 0 6 -4 10 -10 10 -5 0
-10 -4 -10 -10z"/>
<path d="M5870 7650 c0 -5 5 -10 10 -10 6 0 10 5 10 10 0 6 -4 10 -10 10 -5 0
-10 -4 -10 -10z"/>
<path d="M5745 7630 c-3 -5 1 -10 9 -10 9 0 16 5 16 10 0 6 -4 10 -9 10 -6 0
-13 -4 -16 -10z"/>
<path d="M5800 7609 c0 -5 5 -7 10 -4 6 3 10 8 10 11 0 2 -4 4 -10 4 -5 0 -10
-5 -10 -11z"/>
<path d="M5690 7600 c0 -5 5 -10 11 -10 5 0 7 5 4 10 -3 6 -8 10 -11 10 -2 0
-4 -4 -4 -10z"/>
<path d="M5760 7600 c0 -5 5 -10 10 -10 6 0 10 5 10 10 0 6 -4 10 -10 10 -5 0
-10 -4 -10 -10z"/>
<path d="M5645 7570 c4 -6 11 -8 16 -5 14 9 11 15 -7 15 -8 0 -12 -5 -9 -10z"/>
<path d="M5600 7559 c0 -5 5 -7 10 -4 6 3 10 8 10 11 0 2 -4 4 -10 4 -5 0 -10
-5 -10 -11z"/>
<path d="M6275 7710 c3 -5 8 -10 11 -10 2 0 4 5 4 10 0 6 -5 10 -11 10 -5 0
-7 -4 -4 -10z"/>
<path d="M6290 7680 c0 -5 5 -10 10 -10 6 0 10 5 10 10 0 6 -4 10 -10 10 -5 0
-10 -4 -10 -10z"/>
<path d="M6260 7650 c0 -5 5 -10 11 -10 5 0 7 5 4 10 -3 6 -8 10 -11 10 -2 0
-4 -4 -4 -10z"/>
<path d="M6240 7630 c0 -5 5 -10 11 -10 5 0 7 5 4 10 -3 6 -8 10 -11 10 -2 0
-4 -4 -4 -10z"/>
<path d="M6305 7630 c3 -5 8 -10 11 -10 2 0 4 5 4 10 0 6 -5 10 -11 10 -5 0
-7 -4 -4 -10z"/>
<path d="M6216 7602 c-3 -6 -1 -14 5 -17 15 -10 25 3 12 16 -7 7 -13 7 -17 1z"/>
<path d="M6275 7600 c3 -5 8 -10 11 -10 2 0 4 5 4 10 0 6 -5 10 -11 10 -5 0
-7 -4 -4 -10z"/>
<path d="M6250 7564 c0 -8 5 -12 10 -9 6 4 8 11 5 16 -9 14 -15 11 -15 -7z"/>
<path d="M6196 7557 c3 -10 9 -15 12 -12 3 3 0 11 -7 18 -10 9 -11 8 -5 -6z"/>
<path d="M6225 7530 c3 -5 8 -10 11 -10 2 0 4 5 4 10 0 6 -5 10 -11 10 -5 0
-7 -4 -4 -10z"/>
<path d="M6210 7481 c0 -5 5 -13 10 -16 6 -3 10 -2 10 4 0 5 -4 13 -10 16 -5
3 -10 2 -10 -4z"/>
<path d="M7030 6750 c0 -5 5 -10 11 -10 5 0 7 5 4 10 -3 6 -8 10 -11 10 -2 0
-4 -4 -4 -10z"/>
<path d="M7000 6730 c0 -5 5 -10 11 -10 5 0 7 5 4 10 -3 6 -8 10 -11 10 -2 0
-4 -4 -4 -10z"/>
<path d="M7010 6620 c0 -5 5 -10 10 -10 6 0 10 5 10 10 0 6 -4 10 -10 10 -5 0
-10 -4 -10 -10z"/>
<path d="M7045 6620 c3 -5 8 -10 11 -10 2 0 4 5 4 10 0 6 -5 10 -11 10 -5 0
-7 -4 -4 -10z"/>
<path d="M6965 6580 c3 -5 8 -10 11 -10 2 0 4 5 4 10 0 6 -5 10 -11 10 -5 0
-7 -4 -4 -10z"/>
<path d="M7005 6580 c-3 -5 -1 -10 4 -10 6 0 11 5 11 10 0 6 -2 10 -4 10 -3 0
-8 -4 -11 -10z"/>
<path d="M7065 6580 c3 -5 8 -10 11 -10 2 0 4 5 4 10 0 6 -5 10 -11 10 -5 0
-7 -4 -4 -10z"/>
<path d="M7040 6550 c0 -5 5 -10 10 -10 6 0 10 5 10 10 0 6 -4 10 -10 10 -5 0
-10 -4 -10 -10z"/>
<path d="M6930 6510 c0 -5 5 -10 10 -10 6 0 10 5 10 10 0 6 -4 10 -10 10 -5 0
-10 -4 -10 -10z"/>
<path d="M6970 6510 c0 -5 5 -10 11 -10 5 0 7 5 4 10 -3 6 -8 10 -11 10 -2 0
-4 -4 -4 -10z"/>
<path d="M7010 6510 c0 -5 7 -10 16 -10 8 0 12 5 9 10 -3 6 -10 10 -16 10 -5
0 -9 -4 -9 -10z"/>
<path d="M6910 6480 c0 -13 18 -22 24 -11 3 5 -1 11 -9 15 -8 3 -15 1 -15 -4z"/>
<path d="M6990 6480 c0 -5 5 -10 11 -10 5 0 7 5 4 10 -3 6 -8 10 -11 10 -2 0
-4 -4 -4 -10z"/>
<path d="M6950 6470 c0 -5 5 -10 11 -10 5 0 7 5 4 10 -3 6 -8 10 -11 10 -2 0
-4 -4 -4 -10z"/>
<path d="M7020 6459 c0 -5 5 -7 10 -4 6 3 10 8 10 11 0 2 -4 4 -10 4 -5 0 -10
-5 -10 -11z"/>
<path d="M6890 6449 c0 -5 5 -7 10 -4 6 3 10 8 10 11 0 2 -4 4 -10 4 -5 0 -10
-5 -10 -11z"/>
<path d="M6915 6441 c-3 -5 -1 -12 5 -16 5 -3 10 1 10 9 0 18 -6 21 -15 7z"/>
<path d="M6970 6440 c0 -5 5 -10 10 -10 6 0 10 5 10 10 0 6 -4 10 -10 10 -5 0
-10 -4 -10 -10z"/>
<path d="M6890 6410 c0 -5 5 -10 10 -10 6 0 10 5 10 10 0 6 -4 10 -10 10 -5 0
-10 -4 -10 -10z"/>
<path d="M6940 6410 c0 -5 5 -10 10 -10 6 0 10 5 10 10 0 6 -4 10 -10 10 -5 0
-10 -4 -10 -10z"/>
<path d="M6980 6400 c0 -5 5 -10 10 -10 6 0 10 5 10 10 0 6 -4 10 -10 10 -5 0
-10 -4 -10 -10z"/>
<path d="M6860 6370 c0 -5 5 -10 10 -10 6 0 10 5 10 10 0 6 -4 10 -10 10 -5 0
-10 -4 -10 -10z"/>
<path d="M6875 6309 c-4 -6 -5 -12 -2 -15 2 -3 7 2 10 11 7 17 1 20 -8 4z"/>
<path d="M6925 6300 c3 -5 8 -10 11 -10 2 0 4 5 4 10 0 6 -5 10 -11 10 -5 0
-7 -4 -4 -10z"/>
<path d="M4228 7093 c7 -3 16 -2 19 1 4 3 -2 6 -13 5 -11 0 -14 -3 -6 -6z"/>
<path d="M4455 6990 c3 -5 8 -10 11 -10 2 0 4 5 4 10 0 6 -5 10 -11 10 -5 0
-7 -4 -4 -10z"/>
<path d="M3851 6844 c0 -11 3 -14 6 -6 3 7 2 16 -1 19 -3 4 -6 -2 -5 -13z"/>
<path d="M3917 6771 c-3 -14 -1 -18 9 -14 8 3 14 11 14 19 0 21 -17 17 -23 -5z"/>
<path d="M5155 6710 c3 -5 8 -10 11 -10 2 0 4 5 4 10 0 6 -5 10 -11 10 -5 0
-7 -4 -4 -10z"/>
<path d="M2819 6511 c8 -5 10 -14 6 -22 -6 -11 -5 -11 5 -2 14 12 6 33 -13 33
-8 0 -7 -3 2 -9z"/>
<path d="M2750 6456 c0 -2 7 -7 16 -10 8 -3 12 -2 9 4 -6 10 -25 14 -25 6z"/>
<path d="M2759 6363 c-13 -16 -12 -17 4 -4 9 7 17 15 17 17 0 8 -8 3 -21 -13z"/>
<path d="M3829 6393 c-13 -16 -12 -17 4 -4 9 7 17 15 17 17 0 8 -8 3 -21 -13z"/>
<path d="M4300 6190 c-9 -6 -10 -10 -3 -10 6 0 15 5 18 10 8 12 4 12 -15 0z"/>
<path d="M7270 6190 c0 -5 5 -10 10 -10 6 0 10 5 10 10 0 6 -4 10 -10 10 -5 0
-10 -4 -10 -10z"/>
<path d="M7237 6174 c-8 -8 35 -44 45 -38 4 3 -2 14 -12 24 -22 22 -24 23 -33
14z"/>
<path d="M7300 6160 c0 -5 5 -10 10 -10 6 0 10 5 10 10 0 6 -4 10 -10 10 -5 0
-10 -4 -10 -10z"/>
<path d="M7225 6120 c4 -6 11 -8 16 -5 14 9 11 15 -7 15 -8 0 -12 -5 -9 -10z"/>
<path d="M7296 6121 c-3 -5 1 -11 9 -15 8 -3 15 -1 15 4 0 13 -18 22 -24 11z"/>
<path d="M7258 6103 c6 -2 9 -10 6 -15 -4 -7 -2 -8 4 -4 18 11 14 26 -5 25
-11 0 -13 -3 -5 -6z"/>
<path d="M7200 6084 c0 -8 5 -12 10 -9 6 3 10 10 10 16 0 5 -4 9 -10 9 -5 0
-10 -7 -10 -16z"/>
<path d="M7230 6081 c0 -5 5 -13 10 -16 6 -3 10 -2 10 4 0 5 -4 13 -10 16 -5
3 -10 2 -10 -4z"/>
<path d="M7290 6084 c0 -11 29 -34 34 -26 2 4 -4 13 -15 20 -10 7 -19 10 -19
6z"/>
<path d="M7180 6050 c0 -5 5 -10 10 -10 6 0 10 5 10 10 0 6 -4 10 -10 10 -5 0
-10 -4 -10 -10z"/>
<path d="M7241 6051 c-9 -6 -10 -11 -2 -15 13 -8 31 1 31 15 0 11 -11 11 -29
0z"/>
<path d="M7185 6020 c3 -5 8 -10 11 -10 2 0 4 5 4 10 0 6 -5 10 -11 10 -5 0
-7 -4 -4 -10z"/>
<path d="M7270 6020 c0 -5 7 -10 15 -10 8 0 15 5 15 10 0 6 -7 10 -15 10 -8 0
-15 -4 -15 -10z"/>
<path d="M7155 6010 c3 -5 11 -10 16 -10 6 0 7 5 4 10 -3 6 -11 10 -16 10 -6
0 -7 -4 -4 -10z"/>
<path d="M7220 6010 c0 -5 5 -10 11 -10 5 0 7 5 4 10 -3 6 -8 10 -11 10 -2 0
-4 -4 -4 -10z"/>
<path d="M7310 5999 c0 -5 5 -7 10 -4 6 3 10 8 10 11 0 2 -4 4 -10 4 -5 0 -10
-5 -10 -11z"/>
<path d="M7135 5980 c3 -5 8 -10 11 -10 2 0 4 5 4 10 0 6 -5 10 -11 10 -5 0
-7 -4 -4 -10z"/>
<path d="M7250 5979 c0 -5 5 -7 10 -4 6 3 10 8 10 11 0 2 -4 4 -10 4 -5 0 -10
-5 -10 -11z"/>
<path d="M7165 5970 c3 -5 11 -10 16 -10 6 0 7 5 4 10 -3 6 -11 10 -16 10 -6
0 -7 -4 -4 -10z"/>
<path d="M7275 5960 c3 -5 11 -10 16 -10 6 0 7 5 4 10 -3 6 -11 10 -16 10 -6
0 -7 -4 -4 -10z"/>
<path d="M7100 5950 c0 -5 5 -10 10 -10 6 0 10 5 10 10 0 6 -4 10 -10 10 -5 0
-10 -4 -10 -10z"/>
<path d="M7230 5934 c0 -8 5 -12 10 -9 6 3 10 10 10 16 0 5 -4 9 -10 9 -5 0
-10 -7 -10 -16z"/>
<path d="M7061 5927 c-6 -8 -8 -17 -4 -20 12 -12 19 -7 19 13 0 24 0 24 -15 7z"/>
<path d="M7110 5916 c0 -2 7 -7 16 -10 8 -3 12 -2 9 4 -6 10 -25 14 -25 6z"/>
<path d="M7185 5900 c-3 -5 1 -10 9 -10 9 0 16 5 16 10 0 6 -4 10 -9 10 -6 0
-13 -4 -16 -10z"/>
<path d="M7090 5886 c0 -2 7 -7 16 -10 8 -3 12 -2 9 4 -6 10 -25 14 -25 6z"/>
<path d="M6988 5853 c7 -3 16 -2 19 1 4 3 -2 6 -13 5 -11 0 -14 -3 -6 -6z"/>
<path d="M7170 5850 c0 -5 5 -10 10 -10 6 0 10 5 10 10 0 6 -4 10 -10 10 -5 0
-10 -4 -10 -10z"/>
<path d="M7415 5770 c3 -5 8 -10 11 -10 2 0 4 5 4 10 0 6 -5 10 -11 10 -5 0
-7 -4 -4 -10z"/>
<path d="M7420 5720 c0 -5 5 -10 10 -10 6 0 10 5 10 10 0 6 -4 10 -10 10 -5 0
-10 -4 -10 -10z"/>
<path d="M7380 5710 c0 -5 5 -10 11 -10 5 0 7 5 4 10 -3 6 -8 10 -11 10 -2 0
-4 -4 -4 -10z"/>
<path d="M7370 5664 c0 -8 5 -12 10 -9 6 4 8 11 5 16 -9 14 -15 11 -15 -7z"/>
<path d="M7406 5665 c4 -8 10 -12 15 -9 11 6 2 24 -11 24 -5 0 -7 -7 -4 -15z"/>
<path d="M7340 5629 c0 -5 5 -7 10 -4 6 3 10 8 10 11 0 2 -4 4 -10 4 -5 0 -10
-5 -10 -11z"/>
<path d="M7380 5632 c0 -12 19 -26 26 -19 2 2 -2 10 -11 17 -9 8 -15 8 -15 2z"/>
<path d="M7310 5596 c0 -9 5 -16 10 -16 6 0 10 4 10 9 0 6 -4 13 -10 16 -5 3
-10 -1 -10 -9z"/>
<path d="M7360 5590 c0 -5 10 -10 23 -10 18 0 19 2 7 10 -19 13 -30 13 -30 0z"/>
<path d="M7300 5560 c0 -5 5 -10 11 -10 5 0 7 5 4 10 -3 6 -8 10 -11 10 -2 0
-4 -4 -4 -10z"/>
<path d="M7345 5560 c-3 -5 -1 -10 4 -10 6 0 11 5 11 10 0 6 -2 10 -4 10 -3 0
-8 -4 -11 -10z"/>
<path d="M7275 5550 c-3 -5 -1 -10 4 -10 6 0 11 5 11 10 0 6 -2 10 -4 10 -3 0
-8 -4 -11 -10z"/>
<path d="M7370 5535 c0 -8 4 -15 10 -15 5 0 7 7 4 15 -4 8 -8 15 -10 15 -2 0
-4 -7 -4 -15z"/>
<path d="M7325 5527 c-4 -10 -5 -21 -1 -24 10 -10 18 4 13 24 -4 17 -4 17 -12
0z"/>
<path d="M7266 5521 c-4 -5 -2 -12 3 -15 5 -4 12 -2 15 3 4 5 2 12 -3 15 -5 4
-12 2 -15 -3z"/>
<path d="M7292 5490 c-15 -25 -15 -30 1 -30 6 0 13 11 13 25 2 30 2 30 -14 5z"/>
<path d="M7240 5490 c0 -5 5 -10 10 -10 6 0 10 5 10 10 0 6 -4 10 -10 10 -5 0
-10 -4 -10 -10z"/>
<path d="M7350 5470 c0 -5 5 -10 10 -10 6 0 10 5 10 10 0 6 -4 10 -10 10 -5 0
-10 -4 -10 -10z"/>
<path d="M7220 5460 c0 -5 5 -10 10 -10 6 0 10 5 10 10 0 6 -4 10 -10 10 -5 0
-10 -4 -10 -10z"/>
<path d="M7250 5450 c0 -5 5 -10 10 -10 6 0 10 5 10 10 0 6 -4 10 -10 10 -5 0
-10 -4 -10 -10z"/>
<path d="M7320 5444 c0 -8 5 -12 10 -9 6 3 10 10 10 16 0 5 -4 9 -10 9 -5 0
-10 -7 -10 -16z"/>
<path d="M7180 5442 c0 -4 12 -18 25 -31 19 -17 25 -19 25 -8 0 8 6 18 13 21
6 3 2 3 -10 0 -13 -3 -23 -1 -23 4 0 6 -7 12 -15 16 -8 3 -15 2 -15 -2z"/>
<path d="M7130 5430 c0 -5 5 -10 10 -10 6 0 10 5 10 10 0 6 -4 10 -10 10 -5 0
-10 -4 -10 -10z"/>
<path d="M7280 5420 c0 -5 5 -10 10 -10 6 0 10 5 10 10 0 6 -4 10 -10 10 -5 0
-10 -4 -10 -10z"/>
<path d="M7145 5400 c-3 -5 -2 -10 4 -10 5 0 13 5 16 10 3 6 2 10 -4 10 -5 0
-13 -4 -16 -10z"/>
<path d="M7180 5384 c0 -8 5 -12 10 -9 6 3 10 10 10 16 0 5 -4 9 -10 9 -5 0
-10 -7 -10 -16z"/>
<path d="M7240 5396 c0 -2 7 -9 15 -16 12 -10 15 -10 15 4 0 9 -7 16 -15 16
-8 0 -15 -2 -15 -4z"/>
<path d="M7310 5390 c0 -5 7 -10 16 -10 8 0 12 5 9 10 -3 6 -10 10 -16 10 -5
0 -9 -4 -9 -10z"/>
<path d="M7120 5370 c0 -5 5 -10 10 -10 6 0 10 5 10 10 0 6 -4 10 -10 10 -5 0
-10 -4 -10 -10z"/>
<path d="M7200 5370 c0 -5 7 -10 15 -10 8 0 15 5 15 10 0 6 -7 10 -15 10 -8 0
-15 -4 -15 -10z"/>
<path d="M7150 5354 c0 -8 5 -12 10 -9 6 3 10 10 10 16 0 5 -4 9 -10 9 -5 0
-10 -7 -10 -16z"/>
<path d="M7280 5360 c0 -5 5 -10 10 -10 6 0 10 5 10 10 0 6 -4 10 -10 10 -5 0
-10 -4 -10 -10z"/>
<path d="M7176 5352 c-3 -6 -1 -14 5 -17 14 -9 20 -2 10 14 -6 8 -11 9 -15 3z"/>
<path d="M7090 5341 c0 -5 9 -12 19 -16 11 -3 23 -15 26 -26 4 -11 9 -18 12
-16 9 9 -27 67 -42 67 -8 0 -15 -4 -15 -9z"/>
<path d="M7240 5336 c0 -9 5 -16 10 -16 6 0 10 4 10 9 0 6 -4 13 -10 16 -5 3
-10 -1 -10 -9z"/>
<path d="M7060 5314 c0 -8 5 -12 10 -9 6 3 10 10 10 16 0 5 -4 9 -10 9 -5 0
-10 -7 -10 -16z"/>
<path d="M7150 5320 c0 -5 5 -10 10 -10 6 0 10 5 10 10 0 6 -4 10 -10 10 -5 0
-10 -4 -10 -10z"/>
<path d="M7210 5316 c0 -9 5 -16 10 -16 6 0 10 4 10 9 0 6 -4 13 -10 16 -5 3
-10 -1 -10 -9z"/>
<path d="M6980 5301 c0 -8 7 -22 16 -32 15 -16 17 -16 35 2 19 19 17 45 -2 33
-5 -3 -7 -10 -4 -15 11 -17 -18 -9 -31 9 -10 13 -13 14 -14 3z"/>
<path d="M7090 5296 c0 -17 14 -29 23 -20 8 8 -3 34 -14 34 -5 0 -9 -6 -9 -14z"/>
<path d="M7180 5295 c0 -8 -4 -15 -10 -15 -5 0 -10 -5 -10 -11 0 -6 5 -9 12
-7 14 5 31 48 18 48 -6 0 -10 -7 -10 -15z"/>
<path d="M7265 5300 c-3 -5 1 -10 9 -10 9 0 16 5 16 10 0 6 -4 10 -9 10 -6 0
-13 -4 -16 -10z"/>
<path d="M6950 5270 c0 -5 5 -10 11 -10 5 0 7 5 4 10 -3 6 -8 10 -11 10 -2 0
-4 -4 -4 -10z"/>
<path d="M7061 5268 c0 -15 58 -63 66 -55 5 5 -52 67 -62 67 -3 0 -5 -6 -4
-12z"/>
<path d="M6895 5260 c3 -5 11 -10 16 -10 6 0 7 5 4 10 -3 6 -11 10 -16 10 -6
0 -7 -4 -4 -10z"/>
<path d="M7132 5250 c14 -22 24 -19 15 5 -4 8 -11 15 -17 15 -6 0 -6 -7 2 -20z"/>
<path d="M6977 5254 c-3 -5 5 -19 18 -30 23 -21 23 -21 40 -1 12 14 14 22 6
30 -8 8 -11 6 -11 -6 0 -22 -19 -22 -35 0 -7 9 -15 12 -18 7z"/>
<path d="M7240 5249 c0 -5 5 -7 10 -4 6 3 10 8 10 11 0 2 -4 4 -10 4 -5 0 -10
-5 -10 -11z"/>
<path d="M6862 5238 c5 -15 28 -23 28 -10 0 5 -7 13 -16 16 -10 4 -14 1 -12
-6z"/>
<path d="M7200 5230 c0 -5 7 -10 16 -10 8 0 12 5 9 10 -3 6 -10 10 -16 10 -5
0 -9 -4 -9 -10z"/>
<path d="M7060 5217 c0 -9 -7 -17 -15 -17 -9 0 -12 -6 -8 -15 3 -9 8 -14 10
-11 3 3 14 -5 24 -17 10 -12 18 -18 19 -13 0 5 -8 18 -17 28 -15 17 -15 20 -3
28 12 7 12 12 2 22 -9 9 -12 9 -12 -5z"/>
<path d="M7170 5201 c0 -5 7 -11 15 -15 8 -3 15 -1 15 3 0 5 -7 11 -15 15 -8
3 -15 1 -15 -3z"/>
<path d="M7090 5185 c0 -8 5 -15 10 -15 6 0 10 7 10 15 0 8 -4 15 -10 15 -5 0
-10 -7 -10 -15z"/>
<path d="M7130 5186 c0 -8 5 -18 10 -21 6 -3 10 1 10 9 0 8 -4 18 -10 21 -5 3
-10 -1 -10 -9z"/>
<path d="M6670 5151 c0 -11 31 -24 39 -16 3 3 -1 10 -9 15 -19 12 -30 12 -30
1z"/>
<path d="M6926 5131 c-3 -4 9 -19 26 -32 17 -13 37 -30 45 -37 7 -7 13 -10 13
-5 0 4 4 1 10 -7 5 -8 13 -11 17 -6 4 5 2 11 -6 14 -7 2 -21 12 -31 22 -9 9
-24 19 -33 23 -9 3 -17 13 -17 22 0 16 -15 20 -24 6z"/>
<path d="M6982 5128 c3 -7 14 -18 25 -23 12 -6 28 -17 37 -24 9 -8 19 -11 22
-9 3 3 -8 15 -24 27 -16 11 -32 18 -36 14 -3 -3 -6 1 -6 10 0 10 -5 17 -11 17
-6 0 -9 -6 -7 -12z"/>
<path d="M6862 5121 c2 -7 7 -12 11 -12 12 1 9 15 -3 20 -7 2 -11 -2 -8 -8z"/>
<path d="M7090 5110 c0 -5 5 -10 11 -10 5 0 7 5 4 10 -3 6 -8 10 -11 10 -2 0
-4 -4 -4 -10z"/>
<path d="M6896 5062 c-3 -6 -1 -14 4 -17 7 -5 5 -12 -7 -21 -16 -12 -16 -13
-2 -14 9 0 20 8 24 17 6 16 8 15 25 -7 10 -14 21 -22 24 -19 3 3 -9 20 -28 38
-19 19 -36 28 -40 23z"/>
<path d="M6967 5043 c-4 -3 1 -12 11 -19 25 -20 34 -17 20 6 -13 21 -21 24
-31 13z"/>
<path d="M6810 5015 c0 -8 4 -15 9 -15 5 0 12 -9 16 -19 8 -27 33 -34 45 -11
8 15 5 21 -20 32 -17 7 -30 16 -30 20 0 5 -4 8 -10 8 -5 0 -10 -7 -10 -15z"/>
<path d="M6780 4997 c0 -15 37 -40 44 -29 3 5 -4 16 -15 25 -23 20 -29 21 -29
4z"/>
<path d="M6916 5002 c-3 -6 -1 -14 5 -17 14 -9 20 -2 10 14 -6 8 -11 9 -15 3z"/>
<path d="M6890 4960 c0 -5 5 -10 10 -10 6 0 10 5 10 10 0 6 -4 10 -10 10 -5 0
-10 -4 -10 -10z"/>
<path d="M2715 5970 c3 -6 20 -10 37 -10 38 0 34 5 -10 13 -21 4 -31 3 -27 -3z"/>
<path d="M2808 5963 c7 -3 16 -2 19 1 4 3 -2 6 -13 5 -11 0 -14 -3 -6 -6z"/>
<path d="M2530 5826 c0 -2 9 -6 20 -9 11 -3 18 -1 14 4 -5 9 -34 13 -34 5z"/>
<path d="M2435 5711 c-3 -5 -2 -12 3 -15 5 -3 9 1 9 9 0 17 -3 19 -12 6z"/>
<path d="M2658 5223 c17 -2 32 -8 32 -14 0 -5 5 -9 11 -9 8 0 8 5 -1 15 -7 8
-26 14 -44 13 l-31 -1 33 -4z"/>
<path d="M3570 5101 c0 -5 5 -13 10 -16 6 -3 10 -2 10 4 0 5 -4 13 -10 16 -5
3 -10 2 -10 -4z"/>
<path d="M3600 5080 c0 -11 4 -20 9 -20 11 0 22 26 14 34 -12 12 -23 5 -23
-14z"/>
<path d="M4370 5701 c0 -6 4 -13 10 -16 6 -3 7 1 4 9 -7 18 -14 21 -14 7z"/>
<path d="M4437 5659 c7 -7 15 -10 18 -7 3 3 -2 9 -12 12 -14 6 -15 5 -6 -5z"/>
<path d="M3136 5007 c3 -10 9 -15 12 -12 3 3 0 11 -7 18 -10 9 -11 8 -5 -6z"/>
<path d="M3095 4967 c-13 -16 -7 -54 9 -60 7 -3 19 -1 27 4 11 7 9 9 -6 9 -14
0 -21 7 -22 20 -2 25 22 26 37 3 6 -10 10 -12 8 -4 -6 23 -41 42 -53 28z"/>
<path d="M5940 4940 c0 -5 5 -10 11 -10 5 0 7 5 4 10 -3 6 -8 10 -11 10 -2 0
-4 -4 -4 -10z"/>
<path d="M5880 4920 c0 -5 5 -10 10 -10 6 0 10 5 10 10 0 6 -4 10 -10 10 -5 0
-10 -4 -10 -10z"/>
<path d="M5916 4911 c-4 -5 -2 -12 3 -15 5 -4 12 -2 15 3 4 5 2 12 -3 15 -5 4
-12 2 -15 -3z"/>
<path d="M5860 4890 c0 -5 5 -10 10 -10 6 0 10 5 10 10 0 6 -4 10 -10 10 -5 0
-10 -4 -10 -10z"/>
<path d="M5890 4880 c0 -5 5 -10 10 -10 6 0 10 5 10 10 0 6 -4 10 -10 10 -5 0
-10 -4 -10 -10z"/>
<path d="M5810 4870 c0 -5 5 -10 10 -10 6 0 10 5 10 10 0 6 -4 10 -10 10 -5 0
-10 -4 -10 -10z"/>
<path d="M5845 4860 c3 -5 8 -10 11 -10 2 0 4 5 4 10 0 6 -5 10 -11 10 -5 0
-7 -4 -4 -10z"/>
<path d="M5870 4860 c0 -13 18 -22 24 -11 3 5 -1 11 -9 15 -8 3 -15 1 -15 -4z"/>
<path d="M5750 4830 c0 -5 5 -10 10 -10 6 0 10 5 10 10 0 6 -4 10 -10 10 -5 0
-10 -4 -10 -10z"/>
<path d="M5725 4801 c-3 -6 3 -9 14 -8 11 0 17 5 15 9 -7 11 -22 10 -29 -1z"/>
<path d="M5756 4773 c-20 -20 -26 -22 -26 -9 0 16 -11 21 -23 9 -4 -3 -2 -12
5 -20 6 -7 8 -16 4 -20 -3 -3 -6 -1 -6 5 0 7 -4 12 -10 12 -17 0 -11 -19 10
-30 24 -13 43 1 55 39 4 14 12 20 21 17 15 -6 20 9 5 18 -5 3 -20 -6 -35 -21z"/>
<path d="M5600 4759 c0 -5 5 -7 10 -4 6 3 10 8 10 11 0 2 -4 4 -10 4 -5 0 -10
-5 -10 -11z"/>
<path d="M3896 4711 c-4 -5 -2 -12 3 -15 5 -4 12 -2 15 3 4 5 2 12 -3 15 -5 4
-12 2 -15 -3z"/>
<path d="M5150 3165 c0 -8 5 -15 10 -15 6 0 10 7 10 15 0 8 -4 15 -10 15 -5 0
-10 -7 -10 -15z"/>
<path d="M5850 3006 c0 -2 7 -6 15 -10 8 -3 15 -1 15 4 0 6 -7 10 -15 10 -8 0
-15 -2 -15 -4z"/>
<path d="M3251 8347 c-40 -20 -66 -64 -65 -107 2 -51 26 -88 72 -107 78 -33
159 27 155 117 -3 82 -90 134 -162 97z"/>
<path d="M2664 7896 c-64 -28 -99 -116 -74 -190 17 -54 79 -96 139 -96 61 0
107 29 131 83 25 55 25 83 -2 137 -37 71 -118 99 -194 66z"/>
<path d="M7431 7623 c-52 -27 -76 -66 -76 -123 0 -38 5 -54 25 -75 53 -56 104
-68 157 -35 43 26 66 63 66 108 0 100 -92 167 -172 125z"/>
<path d="M2422 7229 c-64 -13 -112 -79 -112 -151 0 -111 112 -180 210 -130
153 76 69 317 -98 281z"/>
<path d="M7565 6926 c-86 -38 -122 -152 -72 -227 29 -44 80 -69 139 -69 38 0
54 6 82 30 49 43 71 105 57 157 -27 99 -119 148 -206 109z"/>
<path d="M7581 4782 c-69 -37 -91 -126 -46 -181 51 -60 139 -62 185 -4 79 100
-30 245 -139 185z"/>
<path d="M2442 4135 c-80 -67 -59 -177 42 -215 86 -32 168 68 136 165 -24 72
-120 99 -178 50z"/>
<path d="M7329 4136 c-102 -27 -181 -95 -228 -196 -36 -76 -37 -210 -3 -284
38 -82 85 -132 166 -171 98 -49 168 -55 267 -26 61 19 81 31 129 79 79 80 104
136 108 244 6 136 -32 223 -130 294 -88 65 -206 88 -309 60z m191 -146 c49
-25 108 -94 116 -136 8 -45 -2 -71 -35 -85 -15 -7 -35 -25 -43 -40 -24 -42
-63 -62 -117 -62 -56 1 -94 19 -135 62 -17 17 -34 31 -39 31 -17 0 3 -82 24
-99 19 -15 19 -18 6 -30 -13 -10 -17 -9 -25 6 -6 10 -10 21 -11 26 -1 4 -4 7
-8 6 -3 0 -11 7 -16 16 -6 12 -5 20 4 26 14 8 12 10 -13 13 -6 0 -16 17 -21
36 -22 87 28 191 116 235 44 22 60 26 105 21 30 -4 71 -15 92 -26z m-203 -375
c0 -8 -4 -12 -9 -9 -5 3 -6 10 -3 15 9 13 12 11 12 -6z m42 -28 c0 -9 -2 -8
-6 1 -2 6 -10 9 -15 6 -7 -4 -8 -2 -4 5 9 13 26 5 25 -12z m90 -13 c2 -2 -14
-4 -37 -4 -23 0 -42 4 -42 9 0 9 69 4 79 -5z"/>
<path d="M7410 3971 c-5 -11 -10 -27 -10 -35 0 -9 -8 -16 -19 -16 -33 0 -52
-27 -40 -57 5 -15 6 -30 1 -37 -23 -29 -20 -56 10 -81 24 -20 40 -25 87 -25
58 0 81 11 81 41 0 10 11 19 30 23 47 9 58 44 35 112 -21 62 -24 66 -74 71
-20 2 -40 8 -45 14 -16 15 -45 10 -56 -10z m117 -87 c21 -21 23 -28 12 -35
-10 -6 -17 -2 -23 11 -5 11 -12 20 -16 20 -3 0 -15 7 -26 15 -18 14 -18 14 4
15 13 0 35 -12 49 -26z m-72 -74 c0 -7 -10 -16 -22 -21 -26 -9 -32 8 -11 29
15 15 33 10 33 -8z"/>
<path d="M7275 3650 c3 -5 11 -10 16 -10 6 0 7 5 4 10 -3 6 -11 10 -16 10 -6
0 -7 -4 -4 -10z"/>
<path d="M2693 3585 c-99 -22 -193 -77 -272 -160 -299 -315 -162 -827 255
-951 84 -25 220 -23 304 6 129 43 209 106 290 227 155 232 124 533 -74 729
-142 139 -314 190 -503 149z m161 -135 c32 -5 87 -22 120 -38 68 -32 152 -104
141 -122 -3 -6 -1 -9 5 -8 6 2 18 -13 25 -32 12 -27 12 -31 1 -17 -14 18 -32
24 -21 8 6 -11 -28 -7 -46 5 -9 5 -10 -1 -5 -20 4 -15 2 -26 -4 -26 -5 0 -10
17 -10 38 0 48 -45 121 -93 151 -27 17 -50 21 -99 21 -35 -1 -83 1 -108 5 -36
5 -51 2 -75 -15 -16 -11 -45 -30 -63 -41 -42 -28 -62 -67 -62 -123 0 -40 -4
-47 -29 -60 -15 -8 -35 -26 -45 -40 -19 -30 -21 -82 -3 -93 8 -4 18 -28 23
-53 7 -33 17 -50 42 -66 18 -12 29 -24 25 -26 -5 -3 -2 -3 6 -1 7 2 33 -15 57
-37 50 -46 86 -58 128 -42 25 10 32 9 39 -3 4 -8 16 -15 25 -15 11 0 13 3 6 8
-17 11 -13 41 4 34 10 -3 13 -1 8 6 -10 17 0 15 18 -4 23 -23 19 -41 -11 -53
l-28 -11 30 5 c17 3 46 7 65 8 49 3 53 32 8 52 -20 8 -26 14 -15 15 10 0 36 9
58 19 30 15 37 16 28 5 -10 -12 -9 -16 9 -20 30 -8 35 -32 9 -45 -19 -11 -20
-10 -9 3 11 13 10 16 -5 14 -12 -1 -17 5 -16 19 1 11 0 15 -3 8 -3 -7 -12 -9
-20 -6 -8 3 -14 0 -14 -6 0 -6 6 -11 14 -11 10 0 13 -8 11 -21 -5 -27 -10 -32
-33 -34 -9 -1 -29 -5 -44 -9 -16 -3 -39 -8 -53 -11 -14 -3 -23 -10 -20 -15 9
-15 -40 -30 -94 -30 -45 0 -158 27 -149 36 2 2 19 0 36 -6 20 -5 30 -5 27 1
-4 5 -13 9 -21 9 -8 0 -12 5 -9 10 4 6 -7 10 -26 10 -28 0 -31 3 -27 25 4 21
1 25 -17 25 -17 0 -24 -7 -27 -29 -3 -22 -1 -28 11 -23 10 4 13 1 8 -11 -3 -9
-2 -18 3 -18 6 -1 15 -2 21 -3 6 0 17 -10 25 -21 8 -11 18 -20 22 -20 4 0 6
-4 4 -8 -1 -5 2 -6 8 -2 11 7 70 -24 70 -37 0 -15 -19 -18 -44 -7 -14 7 -23
16 -20 20 3 5 -2 6 -10 3 -16 -6 -126 98 -126 120 0 8 -7 19 -16 27 -8 7 -13
21 -11 31 3 10 1 16 -3 13 -12 -7 -27 44 -41 134 -10 73 -9 87 10 149 46 152
162 269 298 301 52 12 59 12 127 1z m-63 -146 c21 -10 43 -13 72 -9 34 5 48 2
70 -15 31 -25 34 -54 11 -103 -15 -32 -15 -36 5 -75 44 -87 19 -131 -82 -141
-55 -6 -72 -12 -97 -36 -33 -32 -46 -29 -36 9 9 35 43 55 104 63 32 3 58 13
69 25 16 18 16 22 1 66 -14 37 -15 56 -7 91 5 24 8 50 5 56 -2 6 -43 18 -91
25 -83 13 -88 13 -101 -5 -8 -10 -14 -25 -14 -33 0 -12 -3 -12 -15 -2 -23 19
-18 48 11 75 31 29 53 31 95 9z m376 -116 c-3 -8 -6 -5 -6 6 -1 11 2 17 5 13
3 -3 4 -12 1 -19z m-107 -13 c0 -8 -4 -15 -10 -15 -5 0 -7 7 -4 15 4 8 8 15
10 15 2 0 4 -7 4 -15z m117 -62 c-3 -10 -5 -2 -5 17 0 19 2 27 5 18 2 -10 2
-26 0 -35z m-110 -5 c2 -17 0 -19 -7 -8 -5 8 -6 18 -4 22 8 12 10 10 11 -14z
m-431 -13 c-24 -37 -20 -52 29 -99 25 -25 45 -51 45 -60 0 -23 -21 -20 -27 4
-3 10 -13 22 -23 25 -34 11 -68 45 -75 76 -8 37 16 79 46 79 20 0 21 -1 5 -25z
m503 -17 c-1 -31 -1 -31 -8 -8 -5 14 -6 28 -4 33 9 15 13 6 12 -25z m-62 -50
c-3 -7 -5 -2 -5 12 0 14 2 19 5 13 2 -7 2 -19 0 -25z m-5 -53 c-2 -14 -9 -25
-14 -25 -5 0 -7 3 -5 8 2 4 7 15 10 25 9 25 15 21 9 -8z m-28 -46 c-4 -7 0 -9
14 -5 27 9 37 -37 12 -59 -15 -14 -19 -13 -35 5 -12 13 -14 20 -5 20 9 0 10 3
1 13 -8 10 -7 17 1 25 15 15 21 15 12 1z m-314 -284 c0 -1 -9 -5 -19 -8 -13
-3 -18 -1 -14 9 4 10 33 10 33 -1z m70 -19 l45 -15 -36 0 c-20 -1 -51 2 -70 6
-28 5 -30 7 -14 14 27 10 24 10 75 -5z"/>
<path d="M2618 2843 c-10 -2 -18 -14 -18 -26 l0 -21 16 22 c8 12 20 19 26 16
7 -4 8 -2 4 4 -4 7 -8 11 -9 11 -1 -1 -10 -3 -19 -6z"/>
<path d="M2670 2810 c0 -6 7 -10 15 -10 8 0 15 2 15 4 0 2 -7 6 -15 10 -8 3
-15 1 -15 -4z"/>
<path d="M2702 2776 c7 -8 15 -12 17 -11 5 6 -10 25 -20 25 -5 0 -4 -6 3 -14z"/>
<path d="M2738 2783 c7 -3 16 -2 19 1 4 3 -2 6 -13 5 -11 0 -14 -3 -6 -6z"/>
<path d="M2780 2761 c0 -6 -8 -11 -17 -12 -10 0 -13 -3 -6 -5 18 -8 49 11 34
20 -6 4 -11 2 -11 -3z"/>
<path d="M6877 3325 c-147 -51 -264 -153 -330 -284 -47 -94 -61 -164 -54 -281
6 -109 28 -181 81 -265 80 -124 167 -192 311 -241 89 -30 209 -36 300 -15 186
44 361 217 411 406 18 67 17 215 -1 294 -35 147 -146 285 -285 353 -96 48
-142 58 -265 58 -80 0 -114 -5 -168 -25z m344 -144 c64 -25 153 -97 145 -117
-3 -8 0 -13 6 -11 6 1 12 -7 13 -18 15 -101 17 -127 11 -151 -6 -22 -9 -25
-17 -13 -8 10 -10 7 -6 -13 3 -21 1 -25 -12 -21 -45 16 -54 60 -26 126 8 20
12 43 9 52 -8 20 -41 38 -55 29 -12 -7 -49 23 -49 41 0 6 -6 20 -14 30 -14 19
-15 19 -65 -5 -45 -21 -56 -22 -85 -12 -43 16 -56 15 -78 -5 -24 -21 -23 -45
2 -68 22 -20 27 -41 8 -28 -7 4 -24 8 -38 9 -14 1 -33 2 -42 3 -9 0 -18 9 -20
20 -2 15 -7 17 -27 9 -22 -8 -23 -9 -7 -21 16 -12 16 -14 -8 -25 -30 -13 -34
-37 -9 -50 15 -9 14 -10 -3 -16 -23 -7 -50 -46 -32 -46 6 0 9 -2 6 -5 -8 -8
-58 16 -58 28 0 6 -3 8 -6 5 -3 -4 2 -18 12 -32 19 -30 10 -51 -10 -23 -16 21
-30 23 -23 2 4 -8 1 -17 -5 -21 -7 -5 -8 -2 -3 6 5 9 4 11 -3 6 -7 -4 -12 -14
-12 -22 0 -11 6 -13 22 -8 21 6 21 6 4 -11 -14 -14 -22 -16 -35 -8 -9 6 -15
18 -15 27 1 9 -2 13 -7 10 -13 -8 -11 -34 2 -34 8 0 7 -5 -1 -15 -26 -32 15
-183 46 -171 7 3 10 -3 8 -12 -3 -10 14 -37 40 -66 25 -27 43 -53 41 -57 -3
-4 5 -5 17 -2 23 5 23 5 3 -10 -18 -14 -22 -13 -46 4 -48 34 -101 101 -133
168 -29 61 -31 74 -31 171 0 94 3 111 28 165 44 94 124 169 226 212 50 21 68
23 166 20 83 -3 124 -9 166 -26z m-1 -225 c6 -8 10 -25 8 -38 -2 -19 -9 -23
-38 -23 -29 0 -36 4 -38 23 -4 28 14 52 38 52 10 0 23 -7 30 -14z m-90 -125
c0 -4 -11 -6 -25 -3 -14 2 -25 0 -25 -4 0 -5 -12 -10 -28 -10 l-27 -1 30 13
c34 15 75 18 75 5z m-423 -63 c-3 -8 -6 -5 -6 6 -1 11 2 17 5 13 3 -3 4 -12 1
-19z m3 -52 c0 -3 -4 -8 -10 -11 -5 -3 -10 -1 -10 4 0 6 5 11 10 11 6 0 10 -2
10 -4z m383 -123 c-7 -2 -19 -2 -25 0 -7 3 -2 5 12 5 14 0 19 -2 13 -5z"/>
<path d="M6965 3089 c-4 -6 -5 -12 -2 -15 2 -3 7 2 10 11 7 17 1 20 -8 4z"/>
<path d="M6967 3024 c6 -15 23 -19 23 -5 0 5 -7 11 -14 14 -10 4 -13 1 -9 -9z"/>
<path d="M6800 2951 c0 -6 6 -11 13 -11 8 0 7 -3 -3 -9 -8 -6 -18 -7 -22 -5
-4 3 -8 1 -8 -4 0 -19 27 -20 38 -2 9 14 8 21 -3 30 -11 9 -15 9 -15 1z"/>
<path d="M6740 2930 c0 -5 5 -10 11 -10 5 0 7 5 4 10 -3 6 -8 10 -11 10 -2 0
-4 -4 -4 -10z"/>
<path d="M6710 2921 c0 -5 5 -13 10 -16 6 -3 10 -2 10 4 0 5 -4 13 -10 16 -5
3 -10 2 -10 -4z"/>
<path d="M6705 2879 c-3 -4 2 -6 10 -5 21 3 28 13 10 13 -9 0 -18 -4 -20 -8z"/>
<path d="M3507 2490 c-135 -34 -222 -144 -221 -280 4 -254 303 -381 481 -203
55 55 76 106 81 189 3 57 0 81 -18 122 -25 57 -101 135 -154 157 -45 19 -123
26 -169 15z m123 -125 c34 -18 80 -100 80 -142 0 -42 -11 -74 -23 -66 -6 3 -7
1 -3 -6 9 -14 -12 -43 -25 -35 -5 3 -8 0 -7 -7 2 -7 -15 -19 -37 -27 -111 -39
-226 71 -196 186 10 37 45 78 86 100 29 16 91 14 125 -3z"/>
<path d="M3560 2326 c0 -9 -9 -12 -27 -8 -16 2 -25 1 -21 -3 4 -4 -3 -16 -15
-26 -19 -16 -20 -20 -9 -40 10 -15 11 -24 3 -32 -17 -17 -13 -37 8 -37 11 0
23 -5 26 -11 5 -7 15 -3 31 11 18 18 29 21 51 15 15 -5 34 -7 42 -6 7 1 10 -2
7 -8 -4 -5 -2 -12 3 -16 6 -3 9 2 7 12 -2 10 -6 35 -10 56 -5 24 -3 44 4 52 9
10 7 18 -9 34 -24 24 -91 30 -91 7z"/>
<path d="M6269 2177 c-161 -56 -272 -187 -301 -356 -29 -171 54 -354 204 -451
124 -81 296 -93 422 -31 98 48 179 127 224 220 36 75 37 78 37 196 0 114 -2
123 -32 188 -44 93 -119 169 -211 215 -69 34 -83 37 -176 40 -85 2 -112 -1
-167 -21z m284 -131 c90 -43 146 -130 148 -231 1 -45 -4 -64 -27 -102 -16 -25
-35 -48 -43 -51 -11 -4 -10 1 2 19 22 30 21 39 -1 39 -10 0 -21 2 -24 5 -5 5
40 103 58 126 12 14 15 51 5 44 -12 -7 -36 21 -39 45 -4 29 -29 60 -49 60 -7
0 -13 4 -13 10 0 5 -15 17 -32 26 -38 20 -173 23 -191 5 -6 -6 -7 -11 -2 -11
5 0 -7 -11 -27 -25 -35 -23 -36 -26 -32 -76 2 -29 0 -57 -4 -63 -7 -12 -9 -18
-11 -44 -1 -14 -10 -18 -38 -17 -29 0 -37 4 -34 15 2 8 4 20 4 26 0 6 7 11 15
10 8 0 17 5 20 13 3 8 -1 12 -9 9 -8 -3 -23 2 -34 11 -12 9 -15 10 -7 1 17
-20 15 -30 -8 -30 -11 0 -20 -4 -20 -10 0 -5 8 -6 18 -3 15 6 16 5 2 -13 -8
-10 -21 -23 -27 -27 -14 -8 -19 -112 -5 -104 4 3 8 -17 9 -45 1 -27 10 -62 19
-76 17 -26 17 -26 -1 -12 -36 30 -68 120 -69 195 -3 228 238 379 447 281z
m-35 -90 c33 -23 42 -34 38 -50 -3 -11 2 -28 10 -37 13 -14 13 -21 2 -41 -19
-33 -28 -38 -76 -38 -28 0 -41 4 -37 11 4 6 14 8 22 5 18 -7 49 9 57 30 7 19
-11 81 -32 105 -20 26 -67 31 -101 11 -30 -17 -54 -11 -34 9 16 16 87 38 98
31 6 -4 30 -20 53 -36z m-209 -70 c9 -10 8 -15 -2 -19 -8 -3 -13 3 -13 14 0
23 0 23 15 5z m-5 -52 c3 -8 2 -12 -4 -9 -6 3 -10 10 -10 16 0 14 7 11 14 -7z
m43 -71 c-3 -10 -5 -4 -5 12 0 17 2 24 5 18 2 -7 2 -21 0 -30z m110 -59 c-3
-3 -12 -4 -19 -1 -8 3 -5 6 6 6 11 1 17 -2 13 -5z m56 -61 c-7 -2 -19 -2 -25
0 -7 3 -2 5 12 5 14 0 19 -2 13 -5z m-173 -31 c3 -3 -8 -2 -25 2 -16 4 -34 12
-40 17 -5 5 6 4 25 -2 19 -7 37 -14 40 -17z m-73 -21 c0 -11 -5 -18 -9 -15 -4
3 -5 11 -1 19 7 21 12 19 10 -4z m141 12 c-10 -2 -26 -2 -35 0 -10 3 -2 5 17
5 19 0 27 -2 18 -5z m-147 -96 c-7 -7 -14 -8 -21 -1 -6 6 -2 10 12 11 16 2 18
-1 9 -10z m34 -27 c3 -6 -1 -7 -9 -4 -18 7 -21 14 -7 14 6 0 13 -4 16 -10z
m102 -26 c-3 -3 -12 -4 -19 -1 -8 3 -5 6 6 6 11 1 17 -2 13 -5z"/>
<path d="M2556 2039 c-59 -51 -58 -125 1 -181 38 -36 112 -33 152 6 40 38 49
85 26 135 -33 75 -118 94 -179 40z"/>
<path d="M7213 1965 c-38 -16 -73 -68 -73 -108 0 -77 65 -136 135 -123 39 8
94 65 96 99 4 71 -17 112 -68 133 -40 17 -49 17 -90 -1z"/>
<path d="M3083 1752 c-119 -43 -201 -135 -223 -252 -25 -132 49 -271 182 -342
36 -19 58 -23 138 -23 86 0 100 3 148 29 107 59 166 162 167 286 0 93 -32 167
-101 230 -87 80 -209 109 -311 72z m138 -112 c20 -6 42 -17 48 -24 10 -12 5
-13 -30 -5 -23 6 -56 7 -72 3 -19 -4 -32 -2 -37 6 -6 9 -17 6 -43 -14 -44 -34
-49 -47 -32 -80 8 -14 10 -26 5 -26 -5 0 -13 -12 -16 -27 -4 -16 -11 -31 -17
-34 -5 -4 8 -10 28 -13 28 -6 42 -3 57 11 19 17 20 17 34 -1 7 -10 11 -22 9
-27 -13 -19 43 6 62 30 13 14 23 20 23 14 0 -7 5 -13 11 -13 5 0 7 5 4 10 -3
6 0 10 8 10 16 0 27 20 28 53 0 12 3 16 6 10 9 -25 20 -13 17 20 l-2 32 13
-30 c30 -66 11 -140 -51 -195 -30 -26 -42 -30 -94 -30 -33 0 -60 -4 -60 -10 0
-16 -43 -11 -66 8 -41 33 -67 94 -68 153 -1 46 4 63 27 97 48 69 124 95 208
72z m29 -94 c0 -8 -4 -17 -9 -21 -12 -7 -24 12 -16 25 9 15 25 12 25 -4z"/>
<path d="M3308 1483 c7 -3 16 -2 19 1 4 3 -2 6 -13 5 -11 0 -14 -3 -6 -6z"/>
<path d="M3013 1465 c0 -8 4 -15 9 -15 4 0 8 4 8 9 0 6 -4 12 -8 15 -5 3 -9
-1 -9 -9z"/>
<path d="M3058 1403 c7 -3 16 -2 19 1 4 3 -2 6 -13 5 -11 0 -14 -3 -6 -6z"/>
<path d="M3829 1647 c-39 -26 -59 -75 -52 -125 6 -40 52 -88 92 -97 64 -14
141 51 141 118 0 104 -98 160 -181 104z"/>
</g>
</svg>
